<svg viewBox="0 0 280 287" fill="none" xmlns="http://www.w3.org/2000/svg"><path opacity="0.982" fill-rule="evenodd" clip-rule="evenodd" d="M106.245 0C107.048 0 107.851 0 108.654 0C129.036 9.05669 149.392 18.1958 169.723 27.4173C170.522 28.2661 170.853 29.2816 170.715 30.4637C169.106 30.9214 167.5 31.4409 165.898 32.0223C165.811 32.0047 165.764 31.9576 165.756 31.8806C166.59 31.2376 167.418 30.5763 168.236 29.8969C168.248 29.6684 168.131 29.503 167.881 29.401C147.717 20.2868 127.502 11.2895 107.237 2.40876C107.073 2.9697 107.049 3.53647 107.166 4.10906C108.409 16.7691 109.66 29.4268 110.921 42.0824C110.029 41.5665 109.179 40.9997 108.371 40.3821C107.119 27.7469 105.844 15.1128 104.545 2.4796C104.644 1.30689 105.211 0.480357 106.245 0Z" fill="#141424"></path> <path fill-rule="evenodd" clip-rule="evenodd" d="M165.76 31.8805C163.678 32.7963 161.599 33.7408 159.526 34.7144C161.389 33.1138 163.326 31.5789 165.335 30.1094C146.666 21.7055 127.963 13.3694 109.225 5.10083C109.178 5.31337 109.131 5.52591 109.084 5.73844C110.354 18.275 111.582 30.8147 112.768 43.3576C112.178 42.8975 111.564 42.4724 110.926 42.0823C109.665 29.4267 108.413 16.769 107.171 4.10899C107.054 3.5364 107.077 2.96963 107.242 2.40869C127.506 11.2894 147.722 20.2868 167.886 29.4009C168.135 29.503 168.253 29.6683 168.24 29.8969C167.423 30.5763 166.595 31.2376 165.76 31.8805Z" fill="#7D9D3C"></path> <path fill-rule="evenodd" clip-rule="evenodd" d="M159.524 34.7136C153.682 37.7074 148.533 41.6276 144.08 46.4741C138.511 50.629 132.938 54.7854 127.36 58.9429C123.583 52.756 118.718 47.5605 112.766 43.3568C111.58 30.814 110.352 18.2743 109.082 5.73771C109.129 5.52517 109.177 5.31264 109.224 5.1001C127.962 13.3686 146.664 21.7048 165.334 30.1087C163.325 31.5782 161.388 33.1131 159.524 34.7136Z" fill="#B8D334"></path> <path fill-rule="evenodd" clip-rule="evenodd" d="M111.496 7.51068C111.97 7.4873 112.443 7.51092 112.913 7.58152C124.156 12.5931 135.397 17.5995 146.635 22.6008C148.081 23.2346 148.435 24.25 147.698 25.6472C146.989 26.3708 146.163 26.536 145.218 26.1431C133.883 21.0894 122.548 16.0358 111.212 10.9821C110.281 10.1568 110.116 9.18853 110.716 8.07744C110.973 7.86815 111.233 7.67923 111.496 7.51068Z" fill="#FEFEFD"></path> <path fill-rule="evenodd" clip-rule="evenodd" d="M151.024 24.6548C153.24 24.7421 153.972 25.8284 153.22 27.9137C152.127 29.0457 151.042 29.0457 149.961 27.9137C149.265 26.4728 149.619 25.3865 151.024 24.6548Z" fill="#FDFEFA"></path> <path opacity="0.996" fill-rule="evenodd" clip-rule="evenodd" d="M166.044 235.35C165.052 235.294 164.06 235.246 163.068 235.208C161.977 235.229 160.892 235.181 159.81 235.066C158.354 235.085 156.913 234.99 155.488 234.783C155.562 231.951 155.608 229.117 155.63 226.281C152.867 229.214 149.725 231.623 146.207 233.508C144.341 234.395 142.452 235.197 140.539 235.916C139.997 236.026 139.478 236.167 138.981 236.342C138.147 236.468 137.344 236.656 136.572 236.908C130.681 237.931 124.872 237.601 119.144 235.916C116.905 235.081 114.732 234.089 112.626 232.941C112.057 232.607 111.49 232.276 110.926 231.949C110.761 231.677 110.524 231.559 110.217 231.595C109.88 232.057 109.526 232.505 109.155 232.941C109.086 233.076 109.063 233.217 109.084 233.366C108.473 233.693 108.001 234.167 107.667 234.783C99.2332 243.034 89.1258 246.41 77.3447 244.914C75.5213 244.67 73.7265 244.293 71.9604 243.78C68.6739 242.59 65.3678 241.457 62.042 240.38C60.2153 240.088 58.4205 239.663 56.6577 239.105C41.3689 237.569 29.3488 230.555 20.597 218.063C11.9801 204.291 10.4215 189.743 15.9212 174.422C17.4143 170.703 19.3272 167.231 21.6597 164.008C20.7795 163.029 20.0947 161.918 19.6052 160.678C13.1282 147.011 6.70471 133.314 0.335053 119.588C-0.551819 116.541 0.321946 114.156 2.95636 112.432C16.417 106.08 29.8305 99.6562 43.1969 93.1622C39.5149 77.0184 35.6892 60.9127 31.7199 44.8453C44.6056 41.6121 57.4996 38.4005 70.4018 35.2103C83.7186 32.1771 96.3765 33.9011 108.375 40.382C109.184 40.9997 110.034 41.5664 110.926 42.0823C111.564 42.4724 112.178 42.8975 112.768 43.3576C118.72 47.5613 123.585 52.7567 127.362 58.9436C127.571 59.3612 127.783 59.7863 128 60.2189C128.095 60.3254 128.213 60.3727 128.354 60.3606C128.338 60.448 128.291 60.5188 128.212 60.5731C129.846 63.4399 131.192 66.4391 132.25 69.5705C133.756 63.1384 136.33 57.1874 139.973 51.7174C141.309 49.9441 142.678 48.1966 144.082 46.4748C148.535 41.6284 153.684 37.7082 159.526 34.7144C161.599 33.7408 163.678 32.7963 165.761 31.8805C165.769 31.9575 165.816 32.0047 165.902 32.0222C167.505 31.4409 169.11 30.9213 170.72 30.4636C187.577 26.8739 202.738 30.3925 216.203 41.0197C221.365 45.495 225.664 50.6667 229.097 56.5349C228.845 57.4132 228.515 58.2397 228.105 59.0145C228.179 59.094 228.227 59.1885 228.247 59.2979C227.931 59.7173 227.672 60.166 227.468 60.6439C227.214 61.4384 226.953 62.2414 226.688 63.0527C226.718 63.1357 226.765 63.2066 226.83 63.2652C226.359 63.9475 225.981 64.6796 225.696 65.4615C225.681 65.9081 225.539 66.3568 225.271 66.8075C225.407 66.9701 225.359 67.1117 225.13 67.2326C225.176 67.2798 225.225 67.3271 225.271 67.3743C224.904 68.0129 224.574 68.674 224.279 69.358C224.326 69.4997 224.374 69.6414 224.421 69.7831C223.966 70.4013 223.73 71.0625 223.713 71.7667C223.429 72.1918 223.146 72.6169 222.863 73.042C222.928 73.1006 222.974 73.1715 223.004 73.2545C222.797 73.6493 222.656 74.0743 222.579 74.5297C222.328 74.6055 222.282 74.7237 222.437 74.884C222.187 75.2055 222.092 75.536 222.154 75.8758C221.545 77.2311 220.978 78.6008 220.454 79.9849C225.518 81.13 230.595 82.24 235.686 83.3146C234.983 88.0468 234.228 92.7698 233.419 97.4838C244.785 94.675 255.246 96.6352 264.803 103.364C275.399 111.688 280.334 122.622 279.61 136.166C278.261 148.554 272.358 158.047 261.899 164.646C260.833 188.074 259.77 211.5 258.711 234.925C243.742 235.793 228.747 236.692 213.723 237.617C211.149 237.471 208.574 237.305 206.001 237.121C204.532 235.605 203.115 234.046 201.75 232.445C197.31 232.255 192.869 232.043 188.431 231.807C183.631 232.988 178.813 234.286 173.979 235.704C171.325 235.666 168.679 235.548 166.044 235.35Z" fill="#010101"></path> <path fill-rule="evenodd" clip-rule="evenodd" d="M179.786 32.3048C196.219 31.7744 209.798 37.6783 220.522 50.0162C221.878 51.7967 223.178 53.615 224.419 55.4713C216.701 60.5823 208.956 65.6597 201.181 70.7032C195.283 62.0417 187.206 58.901 176.952 61.2807C170.104 63.6886 165.547 68.3408 163.279 75.2373C161.323 83.2908 163.236 90.2572 169.017 96.1368C175.229 101.526 182.267 102.943 190.129 100.388C191.555 99.8399 192.925 99.1787 194.239 98.4039C188.952 97.3136 183.663 96.2509 178.369 95.2158C179.691 88.6987 181.014 82.1809 182.336 75.6624C198.76 79.1171 215.196 82.5177 231.645 85.8642C230.034 97.5642 225.122 107.601 216.909 115.974C206.492 125.711 194.118 130.292 179.786 129.718C164.901 128.405 152.928 121.864 143.867 110.093C135.494 98.3495 132.613 85.361 135.224 71.1283C138.61 56.4337 146.852 45.4054 159.949 38.0433C166.189 34.7899 172.801 32.8771 179.786 32.3048Z" fill="#B51E43"></path> <path fill-rule="evenodd" clip-rule="evenodd" d="M191.834 36.6979C189.956 38.4428 189.956 40.214 191.834 42.0113C192.527 42.2797 193.188 42.6104 193.818 43.0032C196.272 43.3608 197.642 42.3218 197.927 39.886C197.942 39.2971 197.801 38.754 197.502 38.2565C206.666 41.3083 214.034 46.7634 219.606 54.6219C213.766 58.5697 207.886 62.4662 201.965 66.3115C196.195 59.3802 188.803 56.381 179.79 57.314C170.185 59.0801 163.691 64.5352 160.307 73.6794C157.859 82.1312 159.369 89.7825 164.842 96.6335C171.503 103.879 179.65 106.406 189.283 104.214C194.08 102.815 198.142 100.265 201.469 96.5626C195.13 95.2599 188.8 93.9138 182.482 92.5244C182.435 92.4064 182.387 92.2882 182.341 92.1702C183.006 88.8124 183.715 85.4826 184.466 82.1809C185.045 82.6111 185.707 82.8708 186.45 82.9602C197.619 85.2507 208.789 87.5414 219.96 89.8323C221.449 89.5435 221.945 88.6933 221.448 87.2818C221.438 87.2198 221.462 87.1724 221.518 87.1401C222.03 87.2744 222.526 87.4161 223.006 87.5652C222.228 89.8416 222.937 91.4239 225.132 92.3119C225.701 92.3823 226.268 92.3588 226.832 92.241C223.53 104.775 216.256 114.244 205.011 120.65C193.289 126.812 181.104 127.898 168.455 123.909C153.112 118.203 143.313 107.458 139.054 91.6743C137.301 83.8814 137.49 76.1355 139.62 68.4368C140.147 66.6774 140.785 64.9771 141.533 63.3359C139.647 68.6535 138.821 74.1323 139.054 79.7722C139.541 81.02 140.367 81.3269 141.533 80.6932C141.872 80.4166 142.084 80.0623 142.171 79.6305C141.95 65.8341 147.31 54.8057 158.253 46.5455C166.864 40.6501 176.357 38.4304 186.733 39.886C187.971 39.3371 188.277 38.4632 187.654 37.2647C187.483 37.0452 187.27 36.88 187.016 36.7688C183.393 36.2605 179.756 36.1425 176.106 36.4145C175.957 36.4356 175.816 36.4121 175.681 36.3437C181.106 35.4378 186.491 35.556 191.834 36.6979Z" fill="#EA2627"></path> <path fill-rule="evenodd" clip-rule="evenodd" d="M141.532 63.3362C146.932 50.0733 156.52 41.4537 170.295 37.4774C172.228 37.0096 174.165 36.6553 176.105 36.4148C179.755 36.1427 183.392 36.2607 187.015 36.769C187.268 36.8802 187.481 37.0454 187.652 37.2649C188.276 38.4635 187.97 39.3373 186.731 39.8862C176.355 38.4306 166.862 40.6503 158.251 46.5457C147.308 54.8059 141.948 65.8343 142.169 79.6307C142.083 80.0626 141.87 80.4168 141.532 80.6934C140.366 81.3272 139.539 81.0203 139.052 79.7724C138.819 74.1325 139.646 68.6537 141.532 63.3362Z" fill="#FEFCFC"></path> <path fill-rule="evenodd" clip-rule="evenodd" d="M197.502 38.2563C197.801 38.7537 197.942 39.2968 197.927 39.8857C197.642 42.3215 196.272 43.3606 193.818 43.0029C193.188 42.6102 192.527 42.2795 191.834 42.0111C189.956 40.2137 189.956 38.4426 191.834 36.6977C192.565 36.1989 193.368 36.0337 194.243 36.2017C195.531 36.607 196.616 37.2919 197.502 38.2563Z" fill="#FEFCFC"></path> <path fill-rule="evenodd" clip-rule="evenodd" d="M79.8944 37.2652C97.6964 36.9217 111.889 43.8174 122.473 57.9521C132.417 73.0169 133.976 88.9336 127.149 105.702C120.666 119.505 110.11 128.597 95.4805 132.978C83.2423 135.907 71.0096 138.859 58.7823 141.834C51.1309 110.284 43.4795 78.7336 35.8281 47.1836C48.8049 44.0468 61.7933 40.9531 74.7935 37.9028C76.5105 37.652 78.2108 37.4394 79.8944 37.2652Z" fill="#B41E43"></path> <path fill-rule="evenodd" clip-rule="evenodd" d="M84.4284 40.6654C99.8855 40.9995 111.835 47.5647 120.276 60.3606C124.727 67.772 126.687 75.8013 126.157 84.4481C125.609 85.3864 124.83 85.6462 123.819 85.2275C123.553 85.0088 123.34 84.7491 123.181 84.4481C123.26 68.1369 116.246 56.0223 102.14 48.1042C94.8678 44.5713 87.2164 43.3197 79.1857 44.3494C78.0929 44.3897 77.4788 43.8702 77.3438 42.7908C77.3523 42.1431 77.6356 41.6472 78.1939 41.303C80.2401 40.8315 82.3183 40.619 84.4284 40.6654Z" fill="#FEFCFC"></path> <path fill-rule="evenodd" clip-rule="evenodd" d="M84.426 40.6663C82.3159 40.6199 80.2377 40.8324 78.1915 41.304C77.6333 41.6481 77.3499 42.144 77.3414 42.7917C77.4764 43.8711 78.0905 44.3906 79.1834 44.3503C87.2141 43.3207 94.8654 44.5722 102.138 48.1052C116.244 56.0232 123.258 68.1378 123.179 84.4491C123.338 84.75 123.55 85.0097 123.816 85.2284C124.827 85.6471 125.607 85.3873 126.154 84.4491C126.685 75.8022 124.725 67.7729 120.274 60.3615C124.842 66.9548 127.463 74.2755 128.138 82.3237C128.233 84.5436 128.233 86.7633 128.138 88.9832C128.109 89.9594 127.991 90.9041 127.784 91.817C127.533 89.9135 126.447 88.8745 124.525 88.6998C121.996 89.1284 121.028 90.5925 121.62 93.0922C122.707 95.1096 124.29 95.6056 126.367 94.58C127.1 94.0618 127.573 93.377 127.784 92.5255C125.253 107.024 117.696 118.005 105.113 125.469C102.094 127.144 98.9292 128.466 95.6197 129.436C84.169 132.311 72.6919 135.074 61.1885 137.725C54.1023 108.481 46.9704 79.2453 39.793 50.018C39.8083 49.8845 39.8555 49.7665 39.9347 49.6638C51.0483 47.0297 62.1475 44.3376 73.2323 41.5873C76.9404 40.7567 80.6717 40.4497 84.426 40.6663Z" fill="#EA2627"></path> <path fill-rule="evenodd" clip-rule="evenodd" d="M144.081 46.4751C142.677 48.1969 141.308 49.9444 139.972 51.7177C136.102 54.5953 132.229 57.4763 128.353 60.3609C128.212 60.3731 128.094 60.3257 127.999 60.2192C127.783 59.7866 127.57 59.3615 127.361 58.944C132.939 54.7864 138.512 50.6301 144.081 46.4751Z" fill="#7D9D3C"></path> <path fill-rule="evenodd" clip-rule="evenodd" d="M139.973 51.7173C136.33 57.1873 133.756 63.1383 132.251 69.5704C131.193 66.439 129.847 63.4399 128.213 60.573C128.292 60.5187 128.339 60.4479 128.355 60.3605C132.23 57.4759 136.103 54.5949 139.973 51.7173Z" fill="#141423"></path> <path fill-rule="evenodd" clip-rule="evenodd" d="M48.0126 56.2515C50.6565 56.2736 51.908 57.5961 51.7675 60.2188C50.7024 62.6743 48.9784 63.2646 46.5957 61.99C45.0421 60.2385 45.0893 58.5382 46.7374 56.8891C47.1755 56.67 47.6006 56.4575 48.0126 56.2515Z" fill="#FFFBFB"></path> <path fill-rule="evenodd" clip-rule="evenodd" d="M79.8949 62.2028C90.3539 61.4925 98.3123 65.5544 103.77 74.3883C107.782 82.0669 107.829 89.7654 103.912 97.484C100.337 103.751 95.0231 107.742 87.9713 109.457C84.2423 110.354 80.5111 111.228 76.7777 112.078C73.0014 96.5956 69.2702 81.1039 65.584 65.6034C70.366 64.4431 75.1362 63.3096 79.8949 62.2028Z" fill="#B51D43"></path> <path fill-rule="evenodd" clip-rule="evenodd" d="M49.1424 64.8952C50.1922 64.7691 50.877 65.1941 51.197 66.1704C55.8728 86.7153 60.5486 107.261 65.2245 127.806C65.4342 129.463 64.7021 130.195 63.0282 130.002C62.7273 129.843 62.4676 129.631 62.2489 129.365C57.4211 108.519 52.6272 87.6663 47.8672 66.808C47.8887 65.8887 48.3138 65.2511 49.1424 64.8952Z" fill="#FFFCFC"></path> <path fill-rule="evenodd" clip-rule="evenodd" d="M81.0268 65.6028C88.4319 65.2568 94.501 67.9017 99.2342 73.5375C103.885 79.9233 104.783 86.819 101.926 94.2245C99.4901 99.7308 95.4519 103.533 89.8117 105.631C86.3588 106.482 82.911 107.356 79.4682 108.252C76.1765 94.9671 72.9176 81.6716 69.6914 68.3658C69.7488 68.2319 69.8433 68.1374 69.9748 68.0824C73.6578 67.1611 77.3418 66.3346 81.0268 65.6028Z" fill="#010101"></path> <path fill-rule="evenodd" clip-rule="evenodd" d="M221.449 87.2825C221.946 88.694 221.45 89.5442 219.961 89.833C208.79 87.5421 197.621 85.2514 186.451 82.9609C185.709 82.8715 185.047 82.6118 184.467 82.1816C183.847 80.2353 184.555 79.3617 186.593 79.5603C197.938 81.877 209.273 84.2385 220.599 86.6449C220.974 86.7588 221.258 86.9714 221.449 87.2825Z" fill="#FEFCFC"></path> <path fill-rule="evenodd" clip-rule="evenodd" d="M226.832 92.241C226.268 92.3588 225.701 92.3823 225.132 92.3119C222.937 91.4239 222.229 89.8416 223.007 87.5652C224.031 86.1142 225.4 85.6654 227.116 86.2191C229.044 87.3616 229.493 88.9439 228.462 90.9658C228.014 91.5339 227.471 91.9589 226.832 92.241Z" fill="#FEFCFD"></path> <path fill-rule="evenodd" clip-rule="evenodd" d="M127.787 91.8169C127.787 92.0531 127.787 92.2892 127.787 92.5254C127.576 93.3769 127.104 94.0617 126.37 94.5799C124.293 95.6055 122.711 95.1096 121.624 93.0921C121.031 90.5924 122 89.1283 124.528 88.6997C126.45 88.8744 127.537 89.9134 127.787 91.8169Z" fill="#FFFCFC"></path> <path fill-rule="evenodd" clip-rule="evenodd" d="M43.9075 95.9259C38.0067 98.6872 32.1029 101.45 26.196 104.215C25.7575 104.347 25.4268 104.607 25.2042 104.994C18.1373 108.197 11.0999 111.479 4.09203 114.842C2.52109 116.201 2.26133 117.783 3.31272 119.588C9.86926 133.41 16.3871 147.248 22.8662 161.104C22.9904 161.407 23.2029 161.596 23.5038 161.671C23.3137 162.049 23.054 162.379 22.7245 162.663C22.0813 162.068 21.6089 161.359 21.3076 160.537C14.7031 146.525 8.13799 132.498 1.61242 118.455C1.30595 116.163 2.17971 114.487 4.23372 113.425C17.3578 107.248 30.488 101.084 43.6241 94.9341C43.7849 95.2468 43.8793 95.5774 43.9075 95.9259Z" fill="#834F9C"></path> <path fill-rule="evenodd" clip-rule="evenodd" d="M43.9066 95.9258C44.1526 96.807 44.3416 97.7043 44.4734 98.6179C38.6028 101.293 32.7462 104.009 26.9035 106.765C25.5267 106.924 24.96 106.333 25.2032 104.994C25.4258 104.607 25.7565 104.347 26.1951 104.215C32.1019 101.45 38.0058 98.6871 43.9066 95.9258Z" fill="#FDFCFD"></path> <path fill-rule="evenodd" clip-rule="evenodd" d="M261.966 159.97C268.572 155.198 272.916 148.846 275.002 140.912C274.992 140.804 274.945 140.733 274.86 140.7C275.327 140.571 275.681 140.288 275.923 139.85C277.784 127.233 274.075 116.583 264.8 107.898C258.308 102.294 250.752 99.4597 242.13 99.3968C241.824 99.5469 241.587 99.7594 241.421 100.034C238.185 100.197 235.021 100.764 231.928 101.735C232.116 101.026 232.306 100.318 232.495 99.6093C243.935 96.4622 254.467 98.3277 264.092 105.206C274.037 113.271 278.595 123.732 277.765 136.591C276.403 147.586 271.185 156.183 262.108 162.379C261.966 161.581 261.92 160.779 261.966 159.97Z" fill="#844F9E"></path> <path fill-rule="evenodd" clip-rule="evenodd" d="M44.4716 98.6177C45.0322 100.577 45.5044 102.56 45.8885 104.569C44.3829 104.042 42.8715 104.019 41.3544 104.498C32.475 108.701 23.5957 112.905 14.7163 117.108C12.4475 118.622 11.621 120.724 12.2367 123.414C14.852 128.975 17.4261 134.548 19.9589 140.133C18.6726 139.743 18.0823 140.216 18.1877 141.55C19.8409 145.046 21.4938 148.54 23.147 152.035C24.6897 154.234 26.7916 155.416 29.4523 155.578C27.3697 157.519 25.386 159.549 23.5012 161.67C23.2002 161.595 22.9877 161.407 22.8636 161.104C16.3844 147.248 9.86659 133.409 3.31006 119.588C2.25866 117.782 2.51842 116.2 4.08936 114.841C11.0973 111.479 18.1346 108.196 25.2015 104.994C24.9582 106.333 25.525 106.923 26.9018 106.765C32.7445 104.009 38.601 101.293 44.4716 98.6177Z" fill="#D36BA7"></path> <path fill-rule="evenodd" clip-rule="evenodd" d="M274.865 140.7C274.017 140.819 273.427 140.488 273.094 139.708C274.731 127.66 271.024 117.623 261.971 109.599C256.213 105.065 249.647 102.656 242.276 102.372C241.321 101.847 241.038 101.068 241.426 100.035C241.592 99.7596 241.829 99.547 242.135 99.397C250.757 99.4599 258.313 102.294 264.805 107.898C274.08 116.583 277.789 127.233 275.928 139.85C275.686 140.288 275.332 140.571 274.865 140.7Z" fill="#FEFCFD"></path> <path fill-rule="evenodd" clip-rule="evenodd" d="M241.426 100.034C241.038 101.067 241.321 101.846 242.276 102.372C249.647 102.656 256.213 105.065 261.972 109.598C271.024 117.623 274.731 127.659 273.095 139.708C273.427 140.487 274.017 140.818 274.866 140.7C274.951 140.733 274.997 140.804 275.007 140.912C272.922 148.846 268.577 155.198 261.972 159.97C262.194 153.921 262.478 147.875 262.822 141.833C266.044 133.982 265.17 126.614 260.201 119.729C254.03 112.43 246.261 109.856 236.892 112.007C232.994 113.199 229.642 115.254 226.832 118.171C228.62 112.715 230.32 107.237 231.933 101.734C235.026 100.763 238.19 100.197 241.426 100.034Z" fill="#CA4697"></path> <path fill-rule="evenodd" clip-rule="evenodd" d="M45.89 104.569C45.998 104.917 46.0925 105.271 46.1734 105.631C46.1262 105.749 46.0789 105.867 46.0317 105.985C44.8285 105.267 43.5532 105.102 42.206 105.49C33.2766 109.698 24.35 113.902 15.4262 118.1C13.7007 119.309 13.1104 120.939 13.6551 122.988C17.8113 131.868 21.9677 140.747 26.124 149.626C27.4196 151.725 29.2379 152.363 31.5791 151.539C39.1038 148.001 46.6372 144.483 54.179 140.983C54.2499 141.03 54.3207 141.078 54.3916 141.125C54.4863 141.507 54.5809 141.884 54.6749 142.258C51.5138 143.65 48.3966 145.115 45.3233 146.651C44.9781 146.845 44.6002 146.987 44.1897 147.076C43.809 147.053 43.4311 147.076 43.0562 147.147C38.9035 149.2 34.7 151.135 30.4456 152.956C28.2443 153.325 26.5203 152.593 25.2738 150.76C23.668 147.359 22.0621 143.959 20.4563 140.558C20.3091 140.387 20.1437 140.245 19.9604 140.133C17.4276 134.547 14.8535 128.974 12.2381 123.414C11.6225 120.724 12.449 118.622 14.7178 117.108C23.5972 112.905 32.4765 108.701 41.3559 104.498C42.873 104.019 44.3844 104.042 45.89 104.569Z" fill="#834F9D"></path> <path fill-rule="evenodd" clip-rule="evenodd" d="M262.82 141.833C262.82 141.313 262.82 140.794 262.82 140.274C262.537 140.274 262.253 140.274 261.97 140.274C261.979 139.937 261.93 139.606 261.828 139.283C264.124 131.247 262.329 124.28 256.444 118.383C250.261 113.166 243.318 111.843 235.615 114.416C231.223 116.211 227.846 119.162 225.484 123.271C225.969 121.59 226.417 119.89 226.83 118.171C229.64 115.253 232.993 113.199 236.891 112.007C246.259 109.856 254.028 112.43 260.199 119.729C265.168 126.614 266.042 133.981 262.82 141.833Z" fill="#844E9E"></path> <path fill-rule="evenodd" clip-rule="evenodd" d="M222.718 132.34C222.813 133.095 222.906 133.851 223.001 134.607C223.184 137.625 224.034 140.435 225.552 143.038C225.149 143.558 224.677 144.005 224.135 144.384C222.854 142.097 221.909 139.687 221.301 137.157C221.802 135.56 222.274 133.954 222.718 132.34Z" fill="#824E9C"></path> <path fill-rule="evenodd" clip-rule="evenodd" d="M223.002 134.607C222.907 133.851 222.814 133.095 222.719 132.34C222.788 132.202 222.859 132.06 222.931 131.915C223.002 132.811 223.026 133.708 223.002 134.607Z" fill="#382243"></path> <path fill-rule="evenodd" clip-rule="evenodd" d="M221.303 137.159C221.911 139.689 222.856 142.098 224.137 144.385C222.063 146.34 219.962 148.277 217.832 150.194C218.98 145.854 220.136 141.51 221.303 137.159Z" fill="#C64495"></path> <path fill-rule="evenodd" clip-rule="evenodd" d="M130.052 138.574C144.441 137.897 156.556 142.761 166.396 153.169C177.416 166.326 180.296 181.109 175.039 197.518C169.019 212.89 157.943 222.359 141.813 225.927C127.799 228.34 115.377 224.986 104.548 215.867C95.3681 207.496 90.3852 197.082 89.5991 184.624C89.4204 167.669 96.3397 154.515 110.357 145.163C116.425 141.448 122.99 139.252 130.052 138.574Z" fill="#0D72A6"></path> <path fill-rule="evenodd" clip-rule="evenodd" d="M19.9589 140.133C20.1423 140.245 20.3076 140.387 20.4548 140.558C22.0606 143.959 23.6666 147.36 25.2724 150.76C26.5188 152.594 28.2428 153.325 30.4441 152.956C34.6986 151.136 38.902 149.2 43.0547 147.147C43.4296 147.076 43.8075 147.054 44.1883 147.076C38.7946 149.111 33.8827 151.945 29.4523 155.578C26.7916 155.416 24.6897 154.234 23.147 152.035C21.4939 148.54 19.8409 145.046 18.1878 141.55C18.0823 140.215 18.6726 139.743 19.9589 140.133Z" fill="#FBFAFB"></path> <path fill-rule="evenodd" clip-rule="evenodd" d="M184.607 140.133C188.433 140.285 192.258 140.45 196.084 140.629C208.104 153.689 220.125 166.747 232.145 179.807C232.659 167.332 233.202 154.864 233.774 142.4C234.223 142.354 234.671 142.305 235.12 142.259C243.218 142.684 251.318 143.062 259.42 143.392C258.059 172.718 256.784 202.048 255.595 231.383C251.715 231.363 247.841 231.197 243.976 230.887C232.003 217.78 220.03 204.674 208.057 191.567C207.475 204.13 206.932 216.692 206.428 229.257C197.876 228.929 189.328 228.55 180.781 228.124C182.102 198.795 183.377 169.465 184.607 140.133Z" fill="#0D72A6"></path> <path fill-rule="evenodd" clip-rule="evenodd" d="M143.373 142.967C141.716 144.206 141.361 145.764 142.311 147.643C144.045 149.512 145.792 149.512 147.553 147.643C148.066 146.654 148.184 145.615 147.908 144.526C160.657 149.6 168.993 158.715 172.916 171.872C176.361 186.162 173.337 198.867 163.848 209.987C153.126 221.055 140.161 225.188 124.954 222.385C112.974 219.516 103.976 212.738 97.9612 202.053C91.3548 188.87 91.4491 175.739 98.2445 162.662C105.061 151.086 115.145 144.261 128.496 142.188C133.496 141.713 138.455 141.973 143.373 142.967Z" fill="#7DC4EC"></path> <path fill-rule="evenodd" clip-rule="evenodd" d="M54.672 142.259C54.8746 143.001 55.0163 143.758 55.0971 144.526C51.7903 145.012 48.5313 145.72 45.3203 146.651C48.3936 145.115 51.5108 143.65 54.672 142.259Z" fill="#CE68A4"></path> <path fill-rule="evenodd" clip-rule="evenodd" d="M129.349 142.684C131.475 142.66 133.6 142.684 135.725 142.755C136.724 142.855 137.716 142.997 138.701 143.18C140.023 144.077 140.023 144.975 138.701 145.872C126.362 144.411 115.759 147.977 106.891 156.57C99.8076 164.273 96.407 173.388 96.6891 183.916C96.0425 184.779 95.3104 184.85 94.4928 184.129C94.2113 183.942 94.0459 183.682 93.9969 183.349C93.6917 169.58 98.9578 158.504 109.796 150.123C115.662 145.939 122.18 143.459 129.349 142.684Z" fill="#FDFEFE"></path> <path fill-rule="evenodd" clip-rule="evenodd" d="M147.908 144.526C148.185 145.615 148.067 146.654 147.554 147.643C145.793 149.512 144.046 149.512 142.311 147.643C141.362 145.764 141.716 144.205 143.374 142.967C145.33 142.274 146.841 142.793 147.908 144.526Z" fill="#FDFEFE"></path> <path fill-rule="evenodd" clip-rule="evenodd" d="M252.76 220.472C251.275 219.509 249.811 219.532 248.367 220.542C246.756 222.761 247.133 224.557 249.501 225.927C250.572 226.135 251.564 225.969 252.476 225.431C252.463 226.284 252.415 227.134 252.334 227.981C250.069 227.879 247.802 227.76 245.533 227.627C232.149 212.873 218.711 198.159 205.222 183.49C204.437 197.559 203.751 211.633 203.167 225.714C196.885 225.52 190.602 225.283 184.322 225.006C185.433 197.892 186.615 170.782 187.865 143.675C190.136 143.668 192.403 143.761 194.666 143.958C208.077 158.668 221.514 173.356 234.977 188.024C235.647 173.951 236.285 159.877 236.89 145.8C243.268 146.004 249.644 146.239 256.018 146.509C254.94 171.163 253.855 195.817 252.76 220.472Z" fill="#7DC4EC"></path> <path fill-rule="evenodd" clip-rule="evenodd" d="M193.956 147.217C194.664 147.159 195.255 147.394 195.727 147.926C208.091 161.99 220.56 175.971 233.134 189.866C233.615 191.574 232.978 192.448 231.221 192.488C230.777 192.186 230.376 191.832 230.016 191.425C217.642 177.539 205.267 163.653 192.893 149.768C192.577 148.65 192.931 147.799 193.956 147.217Z" fill="#FDFEFE"></path> <path fill-rule="evenodd" clip-rule="evenodd" d="M57.3658 147.501C68.2727 146.732 78.1912 149.448 87.1212 155.649C82.4925 162.686 77.864 169.723 73.2354 176.761C72.3319 176.433 71.4818 175.962 70.6849 175.344C63.2894 171.522 56.2993 172.136 49.7145 177.186C44.1916 182.26 42.2316 188.472 43.8342 195.818C45.4774 202.656 49.6574 207.12 56.374 209.208C61.7198 210.411 66.7735 209.656 71.5351 206.941C74.1225 205.18 76.2479 202.984 77.9112 200.352C85.0621 204.977 92.194 209.629 99.3067 214.309C90.9615 227.27 79.0593 234.354 63.6003 235.563C48.4275 235.899 36.0766 230.207 26.5478 218.489C17.7905 206.52 15.3346 193.343 19.1798 178.957C24.5607 162.807 35.4947 152.629 51.9815 148.422C53.783 148.036 55.5778 147.728 57.3658 147.501Z" fill="#0D72A6"></path> <path fill-rule="evenodd" clip-rule="evenodd" d="M64.7296 150.902C48.2194 150.882 35.6323 157.825 26.9687 171.731C22.9447 178.854 21.1499 186.505 21.5844 194.685C22.0552 195.593 22.7872 195.899 23.7806 195.606C24.1348 195.44 24.3945 195.181 24.5599 194.826C24.3362 179.898 30.3581 168.303 42.6256 160.041C48.8323 156.21 55.5862 154.297 62.8876 154.303C65.0651 154.327 67.2378 154.398 69.4054 154.515C70.5788 153.642 70.6732 152.673 69.6888 151.61C70.9645 151.894 72.2397 152.177 73.5145 152.461C72.2724 153.862 72.2016 155.326 73.302 156.853C74.5357 158.087 75.929 158.3 77.4819 157.491C78.5106 156.733 78.9828 155.717 78.8988 154.444C78.9921 154.572 79.0864 154.713 79.1822 154.869C80.3199 155.343 81.3589 155.956 82.2994 156.711C78.8709 161.863 75.4703 167.035 72.0976 172.227C64.6348 168.905 57.2668 169.142 49.9936 172.935C42.8514 177.56 39.4271 184.149 39.721 192.701C40.3569 200.663 44.0644 206.685 50.8438 210.767C56.3125 213.531 61.9802 214.003 67.8468 212.184C72.193 210.862 75.8296 208.477 78.7571 205.028C84.0712 208.417 89.3609 211.841 94.6266 215.301C85.6958 226.968 73.841 232.589 59.0619 232.162C44.3359 230.815 33.2604 223.801 25.8351 211.121C19.668 199.207 19.1957 187.069 24.4182 174.706C30.2413 162.556 39.7112 154.881 52.8275 151.681C56.7774 150.808 60.7448 150.549 64.7296 150.902Z" fill="#7DC4EC"></path> <path fill-rule="evenodd" clip-rule="evenodd" d="M64.7361 150.902C66.4272 150.945 68.0802 151.18 69.6953 151.611C70.6796 152.674 70.5853 153.643 69.4119 154.516C67.2443 154.398 65.0716 154.327 62.8941 154.303C55.5927 154.297 48.8388 156.21 42.6321 160.041C30.3646 168.304 24.3426 179.898 24.5664 194.827C24.401 195.181 24.1413 195.44 23.7871 195.606C22.7937 195.899 22.0617 195.593 21.5908 194.685C21.1564 186.505 22.9512 178.854 26.9751 171.731C35.6388 157.825 48.2258 150.883 64.7361 150.902Z" fill="#FDFEFE"></path> <path fill-rule="evenodd" clip-rule="evenodd" d="M78.8995 154.444C78.9836 155.717 78.5113 156.733 77.4826 157.491C75.9297 158.3 74.5364 158.087 73.3027 156.853C72.2023 155.326 72.2732 153.862 73.5152 152.461C75.1621 151.272 76.7444 151.367 78.2619 152.744C78.6563 153.243 78.8688 153.809 78.8995 154.444Z" fill="#FDFEFE"></path> <path fill-rule="evenodd" clip-rule="evenodd" d="M131.75 160.679C141.351 160.413 148.507 164.427 153.217 172.723C156.447 179.643 156.306 186.491 152.792 193.268C147.916 201.291 140.76 204.999 131.325 204.391C124.014 203.451 118.464 199.838 114.676 193.551C110.861 186.345 110.814 179.119 114.535 171.873C118.446 165.346 124.184 161.616 131.75 160.679Z" fill="#0E72A6"></path> <path fill-rule="evenodd" clip-rule="evenodd" d="M131.47 164.079C139.572 163.654 145.736 166.866 149.961 173.714C153.576 181.31 152.772 188.394 147.552 194.968C141.951 200.912 135.221 202.729 127.361 200.423C120.439 197.702 116.353 192.672 115.105 185.333C114.417 177.238 117.463 170.981 124.244 166.558C126.531 165.316 128.94 164.49 131.47 164.079Z" fill="#010101"></path> <path fill-rule="evenodd" clip-rule="evenodd" d="M250.633 173.573C252.583 173.308 253.385 174.158 253.042 176.124C252.489 189.868 251.946 203.612 251.412 217.356C250.837 218.365 250.011 218.671 248.933 218.277C248.666 218.059 248.454 217.798 248.295 217.497C248.622 203.277 249.094 189.061 249.712 174.848C249.936 174.364 250.243 173.939 250.633 173.573Z" fill="#FDFEFE"></path> <path fill-rule="evenodd" clip-rule="evenodd" d="M234.768 192.7C237.346 192.611 238.645 193.838 238.665 196.384C238.128 198.484 236.782 199.357 234.627 199.006C232.447 197.966 231.857 196.336 232.856 194.117C233.394 193.485 234.032 193.012 234.768 192.7Z" fill="#FDFEFE"></path> <path fill-rule="evenodd" clip-rule="evenodd" d="M252.758 220.472C254.138 222.215 254.043 223.869 252.475 225.431C251.562 225.97 250.57 226.136 249.499 225.927C247.132 224.557 246.755 222.762 248.366 220.543C249.81 219.533 251.273 219.51 252.758 220.472Z" fill="#FDFEFE"></path> <path fill-rule="evenodd" clip-rule="evenodd" d="M159.808 235.068C159.965 235.18 160.154 235.25 160.375 235.28C156.67 239.218 152.915 243.114 149.11 246.97C148.81 247.699 148.857 248.408 149.252 249.095C156.242 255.896 163.233 262.697 170.223 269.499C171.989 272.12 172.178 274.859 170.789 277.717C168.888 280.603 166.218 281.761 162.784 281.188C161.881 280.919 161.031 280.542 160.233 280.055C153.106 273.258 146.022 266.41 138.979 259.509C138.271 259.226 137.563 259.226 136.854 259.509C130.006 266.547 123.157 273.584 116.309 280.621C112.122 283.118 108.556 282.434 105.611 278.567C103.848 275.103 104.321 271.985 107.028 269.215C113.451 262.603 119.875 255.991 126.298 249.378C126.77 248.623 126.77 247.867 126.298 247.111C121.083 242.132 115.911 237.102 110.783 232.021C110.815 231.965 110.862 231.94 110.924 231.95C111.489 232.278 112.056 232.608 112.625 232.942C117.036 237.235 121.476 241.51 125.944 245.765C127.235 245.985 127.778 245.442 127.573 244.136C124.735 241.415 121.925 238.676 119.143 235.918C124.871 237.602 130.68 237.933 136.571 236.91C137.139 236.934 137.706 236.91 138.271 236.839C138.566 236.74 138.803 236.575 138.979 236.343C139.476 236.169 139.995 236.027 140.538 235.918C140.154 237.207 140.626 237.797 141.955 237.689C143.44 236.37 144.857 234.977 146.206 233.509C149.724 231.624 152.865 229.216 155.628 226.283C155.607 229.118 155.56 231.952 155.487 234.784C156.912 234.991 158.353 235.086 159.808 235.068Z" fill="#F8B018"></path> <path fill-rule="evenodd" clip-rule="evenodd" d="M110.925 231.95C110.863 231.94 110.815 231.964 110.783 232.021C115.912 237.102 121.084 242.132 126.298 247.111C126.771 247.866 126.771 248.623 126.298 249.378C119.875 255.991 113.452 262.602 107.028 269.215C104.321 271.985 103.849 275.102 105.611 278.566C108.556 282.433 112.122 283.117 116.309 280.621C123.157 273.583 130.006 266.547 136.854 259.509C137.563 259.225 138.271 259.225 138.98 259.509C146.022 266.409 153.107 273.257 160.234 280.054C161.031 280.541 161.882 280.918 162.784 281.188C166.219 281.76 168.888 280.602 170.79 277.716C172.178 274.858 171.99 272.119 170.223 269.498C163.233 262.697 156.242 255.896 149.253 249.094C148.857 248.407 148.81 247.699 149.111 246.969C152.915 243.114 156.67 239.217 160.375 235.279C160.154 235.25 159.966 235.179 159.809 235.067C160.891 235.182 161.976 235.23 163.067 235.209C158.957 239.414 154.895 243.665 150.882 247.961C157.425 254.433 164.038 260.834 170.719 267.16C173.58 270.741 173.887 274.544 171.64 278.566C168.295 282.797 164.161 283.765 159.242 281.471C158.445 280.911 157.689 280.296 156.975 279.629C150.669 273.512 144.364 267.397 138.059 261.28C131.277 268.203 124.547 275.17 117.868 282.179C113.98 285.394 109.918 285.631 105.682 282.888C102.379 279.902 101.411 276.289 102.777 272.048C103.226 271.152 103.745 270.301 104.336 269.498C110.48 263.306 116.573 257.072 122.614 250.795C123.301 250.014 123.986 249.235 124.669 248.457C119.544 243.356 114.349 238.326 109.083 233.367C109.062 233.218 109.085 233.076 109.154 232.942C109.525 232.505 109.879 232.057 110.216 231.596C110.524 231.56 110.76 231.678 110.925 231.95Z" fill="#C3842A"></path> <path opacity="0.988" fill-rule="evenodd" clip-rule="evenodd" d="M109.081 233.366C114.347 238.325 119.543 243.355 124.667 248.456C123.984 249.234 123.299 250.013 122.612 250.794C116.571 257.071 110.478 263.305 104.334 269.497C103.743 270.3 103.224 271.151 102.776 272.048C101.409 276.288 102.377 279.902 105.68 282.887C109.917 285.63 113.978 285.393 117.866 282.178C124.545 275.169 131.275 268.202 138.057 261.279C144.362 267.396 150.668 273.511 156.973 279.628C157.687 280.295 158.444 280.91 159.24 281.47C164.159 283.764 168.293 282.796 171.638 278.565C173.885 274.543 173.578 270.74 170.717 267.159C164.036 260.833 157.423 254.432 150.88 247.96C154.893 243.664 158.955 239.413 163.066 235.208C164.057 235.246 165.049 235.294 166.041 235.349C163.972 237.631 161.823 239.851 159.594 242.009C159.516 242.423 159.611 242.801 159.878 243.142C160.256 243.614 160.633 244.088 161.011 244.559C161.898 246.285 162.748 248.032 163.562 249.802C164.27 250.889 164.978 251.974 165.687 253.061C167.825 257.008 169.999 260.929 172.205 264.821C173.673 266.67 174.713 268.749 175.322 271.056C176.426 275.63 175.27 279.526 171.851 282.745C167.785 285.6 163.488 286.025 158.957 284.02C158.317 283.631 157.704 283.206 157.115 282.745C150.717 276.655 144.341 270.539 137.986 264.396C131.738 270.951 125.409 277.446 118.999 283.879C116.943 285.327 114.675 286.201 112.198 286.5C111.679 286.5 111.159 286.5 110.64 286.5C104.202 285.514 100.707 281.759 100.154 275.236C100.214 273.85 100.474 272.504 100.934 271.197C101.72 269.72 102.428 268.209 103.059 266.663C103.934 264.582 104.69 262.456 105.326 260.287C106.619 258.25 107.611 256.076 108.302 253.769C109.141 252.174 109.85 250.52 110.427 248.81C111.422 247.006 112.225 245.118 112.836 243.142C113.213 242.413 113.567 241.68 113.898 240.946C111.835 238.859 109.757 236.805 107.664 234.783C107.998 234.166 108.47 233.693 109.081 233.366Z" fill="#141424"></path> <path fill-rule="evenodd" clip-rule="evenodd" d="M112.625 232.941C114.731 234.089 116.904 235.08 119.143 235.916C121.925 238.675 124.735 241.414 127.574 244.135C127.779 245.441 127.235 245.984 125.944 245.764C121.476 241.509 117.036 237.234 112.625 232.941Z" fill="#FEFDFB"></path> <path fill-rule="evenodd" clip-rule="evenodd" d="M146.207 233.508C144.858 234.976 143.441 236.369 141.956 237.688C140.627 237.795 140.155 237.206 140.539 235.917C142.452 235.197 144.341 234.395 146.207 233.508Z" fill="#FBF9F7"></path> <path fill-rule="evenodd" clip-rule="evenodd" d="M138.981 236.342C138.804 236.574 138.568 236.739 138.273 236.838C137.708 236.909 137.141 236.933 136.572 236.909C137.344 236.656 138.147 236.468 138.981 236.342Z" fill="#AE7725"></path></svg>