<svg viewBox="0 0 656 192" fill="none" xmlns="http://www.w3.org/2000/svg"><path d="M652.785 87.8978L619.954 79.4461L613.574 93.0582H609.186L601.059 87.8978L607.845 77.0893L594.07 73.5542L587.366 52.3031L577.614 13.6609H568.878L550.715 0.0893555L539.947 13.6609L532.592 42.8355L530.439 43.3231L526.213 24.5912L522.556 20.7717V13.8234H516.055L503.133 0.251884L494.113 9.15057L444.987 3.13685L429.628 13.7015L397.406 0.251884H348.28L340.153 13.8234H337.675V15.0018L310.694 0.251884L299.926 13.7421H245.153L244.259 13.9859C242.601 14.184 240.984 14.6363 239.464 15.3268L237.229 15.9363L215.897 0.170624H142.229L136.947 10.9791L132.03 0.170624H71.6489L60.9624 13.7421V82.2904L40.6458 91.311L40.0769 93.2614H23.4579C21.8732 93.2614 20.3698 93.2614 18.9476 93.2614L16.2658 84.2814L5.13233 98.5437C3.24292 100.471 1.84869 102.827 1.069 105.411C0.281964 108.627 -0.0733127 111.934 0.0125402 115.244V165.223C-0.0205052 168.457 0.37574 171.682 1.1909 174.812C1.98901 177.592 3.50214 180.114 5.57929 182.126C7.70385 184.113 10.3083 185.513 13.1371 186.19C16.2922 186.936 19.525 187.304 22.7672 187.287H64.1318L74.6558 177.047C75.5161 178.771 76.625 180.359 77.9471 181.761C79.7615 183.596 81.937 185.035 84.336 185.986C86.735 186.937 89.3053 187.38 91.8843 187.287H134.387C135.75 187.296 137.111 187.174 138.45 186.921C142.248 186.297 145.795 184.622 148.69 182.086L149.015 181.801L159.214 176.803V187.287H195.052L203.951 177.738L211.305 192L228.249 173.39V187.084H264.251L269.127 180.948V187.084H304.965L311.182 175.3C312.038 177.777 313.425 180.038 315.245 181.923C317.38 183.917 320 185.318 322.844 185.986C325.992 186.774 329.228 187.156 332.474 187.124H397.081L402.729 166.076C402.739 169 403.135 171.91 403.907 174.731C404.703 177.458 406.186 179.934 408.214 181.923C410.328 183.99 412.995 185.402 415.894 185.986C419.029 186.771 422.251 187.153 425.483 187.124H467.295L479.485 179.81C479.967 180.471 480.497 181.096 481.069 181.679C482.874 183.53 485.047 184.982 487.448 185.94C489.848 186.899 492.423 187.344 495.007 187.246H537.428C540.072 187.24 542.696 186.787 545.189 185.905H545.432C547.731 184.994 549.86 183.703 551.731 182.086L552.95 180.867L562.092 170.546V187.409H597.646L604.879 175.584L611.543 187.409H645.065L655.833 172.862L652.785 87.8978Z" fill="#020617"></path> <path d="M102.172 0.17041H71.6562V77.2517H102.172V0.17041Z" fill="#020617"></path> <path d="M144.185 77.2517L134.514 60.1044V77.2517H104.242V0.17041H132.279L142.031 17.724V0.17041H172.343V77.2517H144.185Z" fill="#020617"></path> <path d="M174.088 77.2114V0.00827926H220.125C222.859 -0.0537515 225.59 0.232988 228.252 0.861574H228.496C230.823 1.59717 232.969 2.81562 234.794 4.4373C236.551 6.32151 237.784 8.63303 238.37 11.1418C239.105 13.7862 239.447 16.5244 239.386 19.2684V56.6917C239.718 59.8188 239.512 62.9798 238.776 66.0373C238.191 68.4985 236.956 70.7577 235.2 72.5792C233.361 74.6001 230.953 76.0167 228.293 76.6426C225.635 77.3029 222.904 77.6171 220.166 77.5771L174.088 77.2114ZM209.764 50.0684V27.1513H204.116V50.0684H209.764Z" fill="#020617"></path> <path d="M257.756 77.2528C255.585 77.3354 253.421 76.9745 251.395 76.192C249.368 75.4095 247.523 74.2219 245.972 72.7019H245.769C243.03 69.5245 241.58 65.4364 241.705 61.2433V16.5467C241.572 12.2549 243.1 8.07715 245.972 4.88499C247.52 3.3656 249.367 2.18388 251.395 1.41455C253.423 0.645208 255.589 0.30497 257.756 0.415332H292.578C294.745 0.306131 296.911 0.654976 298.935 1.43912C300.958 2.22327 302.794 3.4251 304.321 4.96625C305.81 6.47929 306.978 8.27817 307.753 10.2545C308.528 12.2307 308.895 14.3435 308.831 16.4655V61.162C308.885 63.4554 308.383 65.7278 307.369 67.7852C306.522 69.6746 305.322 71.3847 303.834 72.8238C302.213 74.2888 300.303 75.3964 298.226 76.0744C296.15 76.8594 293.944 77.2454 291.725 77.2122H257.756V77.2528ZM278.478 50.0691V27.1926H271.855V50.0691H278.478Z" fill="#020617"></path> <path d="M350.64 77.2511L340.888 60.0226V77.2511H310.535V0.210449H338.613L348.283 17.7234V0.210449H378.758V77.2511H350.64Z" fill="#020617"></path> <path d="M380.381 77.2511V0.210449H434.545L440.03 27.2316H434.829V50.0674H440.437L433.814 77.2511H380.381Z" fill="#020617"></path> <path d="M444.341 77.2517L438.855 50.0681H447.917C445.844 49.4275 443.989 48.2274 442.555 46.5999C441.121 44.9724 440.165 42.9808 439.79 40.8443C439.135 38.2834 438.834 35.6447 438.896 33.0021V19.3493C438.822 16.6074 439.151 13.8694 439.871 11.2227C440.361 8.66998 441.623 6.32947 443.488 4.51821C445.384 2.68865 447.769 1.4468 450.355 0.942481C453.016 0.317909 455.75 0.0581908 458.481 0.170455H495.742L501.349 27.1916H490.5C492.72 27.7369 494.762 28.8421 496.433 30.4016C498.232 32.1872 499.498 34.4383 500.09 36.9029C500.723 39.4948 501.01 42.1591 500.943 44.8264V58.2354C501.004 60.9794 500.662 63.7174 499.927 66.362C499.272 68.7931 497.966 70.999 496.148 72.7414C494.298 74.1918 492.167 75.2432 489.891 75.8295C487.233 76.4808 484.5 76.7813 481.764 76.7235L444.341 77.2517Z" fill="#020617"></path> <path d="M533.371 0.251953H503.059V77.2519H533.371V0.251953Z" fill="#020617"></path> <path d="M576.238 77.2519L574.897 69.938H564.82L563.317 77.2519H531.582L550.964 0.251953H588.672L608.135 77.4551L576.238 77.2519ZM569.899 46.4113L569.696 45.7206V46.6145L569.899 46.4113Z" fill="#020617"></path> <path d="M436.535 173.634C433.306 173.659 430.086 173.29 426.946 172.537C424.053 171.937 421.39 170.528 419.266 168.474C417.233 166.466 415.738 163.978 414.919 161.241C414.078 158.102 413.682 154.86 413.74 151.611V101.673C413.651 98.2693 414.076 94.8721 415 91.5955C415.863 88.8139 417.398 86.2878 419.469 84.2409C421.692 82.4529 424.289 81.189 427.068 80.5433H427.352C430.517 79.9773 433.727 79.7053 436.942 79.7306H477.575L484.279 111.465H449.822V142.143H485.905L478.063 173.918L436.535 173.634Z" fill="#020617"></path> <path d="M505.614 173.634C503.03 173.733 500.455 173.288 498.055 172.329C495.654 171.37 493.481 169.918 491.676 168.068C489.953 166.257 488.609 164.12 487.723 161.782C486.837 159.445 486.426 156.954 486.516 154.456V98.7474C486.427 96.2152 486.841 93.6906 487.734 91.3193C488.627 88.948 489.98 86.7772 491.717 84.9321C493.523 83.0992 495.692 81.6643 498.085 80.7196C500.478 79.7749 503.043 79.3413 505.614 79.4466H549.172C551.731 79.3523 554.283 79.7792 556.672 80.7012C559.06 81.6232 561.237 83.0212 563.069 84.8102C566.564 88.5472 568.447 93.5104 568.311 98.6255V154.456C568.317 157.093 567.792 159.705 566.767 162.135C565.671 164.36 564.185 166.369 562.378 168.068C560.512 169.691 558.382 170.982 556.08 171.887H555.796C553.315 172.756 550.704 173.195 548.075 173.187L505.614 173.634ZM532.675 141.859V111.019H522.151V141.859H532.675Z" fill="#020617"></path> <path d="M622.236 173.633L608.34 149.009V173.633H572.826V79.4453H606.105L619.961 104.597V79.4453H655.759V173.633H622.236Z" fill="#020617"></path> <path d="M33.5808 173.635C30.3251 173.654 27.0786 173.286 23.91 172.538C21.0723 171.885 18.462 170.481 16.3523 168.474C14.2751 166.462 12.762 163.94 11.9639 161.16C11.1676 158.026 10.7717 154.804 10.7855 151.571V101.673C10.8059 98.2924 11.2843 94.9299 12.2077 91.6775C12.9168 88.9092 14.3146 86.3653 16.271 84.2823V84.0791C18.6575 82.2182 21.4368 80.9259 24.3976 80.3002C27.5339 79.7267 30.7178 79.4545 33.9058 79.4875H74.5391L81.4061 111.222H46.9085V141.9H83.072L74.9454 173.675L33.5808 173.635Z" fill="#020617"></path> <path d="M102.693 173.634C100.112 173.743 97.5374 173.307 95.1362 172.355C92.735 171.403 90.561 169.956 88.7557 168.108C87.0278 166.29 85.6782 164.147 84.7854 161.804C83.8926 159.46 83.4742 156.962 83.5547 154.455V98.7473C83.4047 93.645 85.2569 88.6865 88.7151 84.932C90.5332 83.0928 92.7161 81.6546 95.1234 80.7099C97.5308 79.7651 100.109 79.3348 102.693 79.4465H146.292C148.847 79.3631 151.393 79.7991 153.774 80.728C156.156 81.6569 158.324 83.0594 160.148 84.8507C161.924 86.6943 163.316 88.8719 164.243 91.2573C165.171 93.6428 165.616 96.1886 165.553 98.7473V154.455C165.592 157.148 165.022 159.815 163.887 162.257C162.866 164.64 161.325 166.765 159.376 168.474C157.493 170.053 155.366 171.316 153.078 172.212C150.567 173.139 147.913 173.62 145.236 173.634H102.693ZM129.592 141.859V111.019H119.271V141.859H129.592Z" fill="#020617"></path> <path d="M205.941 146.612V173.633H169.818V79.4453H210.939L222.316 106.263L234.303 79.4453H275.099V173.633H239.098V146.165L222.154 178.55L205.941 146.612Z" fill="#020617"></path> <path d="M315.819 79.4453H279.98V173.633H315.819V79.4453Z" fill="#020617"></path> <path d="M343.486 173.633C340.243 173.655 337.01 173.287 333.856 172.536C331.031 171.847 328.43 170.449 326.298 168.473C324.409 166.419 323.019 163.958 322.234 161.28C321.444 158.188 321.061 155.005 321.097 151.813V101.671C321.028 98.2638 321.48 94.8655 322.438 91.5944C323.24 88.7858 324.784 86.2452 326.907 84.2398C329.121 82.5438 331.648 81.3011 334.343 80.5828H334.668C337.847 80.0169 341.07 79.7449 344.298 79.7702H384.932L391.474 111.505H356.935V142.183H393.018L384.891 173.958L343.486 173.633Z" fill="#020617"></path> <path d="M97.659 4.68018H76.1641V72.7409H97.659V4.68018Z" fill="white"></path> <path d="M108.75 4.68018H129.635L146.539 35.1551V4.68018H167.831V72.7409H146.823L130.001 42.9567V72.7409H108.75V4.68018Z" fill="white"></path> <path d="M178.803 4.68025H220.127C222.49 4.5882 224.856 4.82062 227.156 5.37101C228.908 5.90981 230.527 6.80951 231.91 8.01217C233.179 9.34561 234.051 11.0058 234.43 12.8069C235.066 15.1078 235.353 17.491 235.283 19.8771V57.3003C235.391 59.7415 235.103 62.184 234.43 64.533C234.061 66.3257 233.187 67.9753 231.91 69.2871C230.619 70.6064 228.964 71.5116 227.156 71.8876C224.853 72.4259 222.492 72.6851 220.127 72.6597H178.803V4.68025ZM211.309 54.5372C212.272 54.6328 213.24 54.4193 214.072 53.9277C214.507 53.1185 214.704 52.203 214.641 51.2866V25.9314C214.691 25.042 214.494 24.1561 214.072 23.3715C213.27 22.8012 212.289 22.5413 211.309 22.6401H199.607V54.5372H211.309Z" fill="white"></path> <path d="M257.756 72.7412C256.173 72.8245 254.591 72.5786 253.108 72.0191C251.625 71.4596 250.275 70.5986 249.142 69.4905C247.072 67.1702 245.967 64.1467 246.053 61.0388V16.3422C245.936 13.1681 247.041 10.07 249.142 7.68733C250.282 6.59702 251.637 5.75584 253.12 5.21721C254.603 4.67858 256.182 4.45428 257.756 4.55857H292.579C294.144 4.45591 295.713 4.68518 297.184 5.23137C298.654 5.77757 299.993 6.62835 301.111 7.72796C302.214 8.85624 303.072 10.2001 303.632 11.6755C304.191 13.1508 304.44 14.7257 304.362 16.3016V60.9981C304.436 62.6176 304.086 64.2284 303.346 65.671C302.707 67.105 301.796 68.4019 300.665 69.4905C299.489 70.5405 298.104 71.3298 296.601 71.8066C295.016 72.3956 293.335 72.6849 291.644 72.6599H257.756V72.7412ZM279.738 54.5374C280.643 54.6554 281.559 54.4228 282.298 53.8873C282.817 53.1241 283.061 52.2069 282.989 51.2868V25.9317C283.08 25.0164 282.818 24.101 282.258 23.3718C281.508 22.8231 280.58 22.5765 279.657 22.681H270.596C269.296 22.681 268.402 22.8842 268.077 23.3718C267.791 23.7203 267.578 24.1233 267.453 24.5564C267.327 24.9894 267.29 25.4435 267.345 25.891V51.2868C267.293 52.2177 267.598 53.1334 268.199 53.8467C268.524 54.253 269.418 54.4562 270.718 54.4562L279.738 54.5374Z" fill="white"></path> <path d="M315.043 4.72217H335.928L352.791 35.1565V4.72217H374.246V72.7422H353.279L336.375 42.958V72.7422H315.043V4.72217Z" fill="white"></path> <path d="M406.066 22.7633V30.9712H430.324V47.0214H406.066V54.5385H434.713L430.284 72.7422H384.896V4.72217H430.853L434.51 22.7633H406.066Z" fill="white"></path> <path d="M447.43 70.1009L444.22 54.7416H472.907C473.269 54.7764 473.631 54.675 473.923 54.4571C474.121 54.098 474.206 53.6872 474.167 53.2788V48.4841C474.167 47.4276 473.638 46.8587 472.663 46.8587H457.548C455.213 46.937 452.879 46.7185 450.599 46.2086C448.973 45.8999 447.466 45.1395 446.252 44.0144C445.127 42.9182 444.374 41.4972 444.098 39.9511C443.524 37.7366 443.264 35.4523 443.326 33.1653V19.35C443.253 17.0065 443.527 14.6651 444.139 12.4017C444.449 10.6531 445.302 9.04654 446.577 7.81018C447.898 6.57084 449.549 5.73852 451.331 5.41282C453.581 4.8931 455.89 4.67448 458.198 4.76269H492.208L495.946 22.7632H465.634C465.312 22.6997 464.98 22.6997 464.659 22.7632C464.453 23.1637 464.368 23.6156 464.415 24.0635V29.4677C464.387 29.8364 464.472 30.2048 464.659 30.5242C464.811 30.6649 464.991 30.7734 465.186 30.8432C465.381 30.913 465.589 30.9427 465.796 30.9305H482.375C484.663 30.901 486.949 31.0915 489.201 31.4994C490.819 31.8562 492.317 32.6261 493.549 33.7342C494.69 34.9228 495.49 36.3965 495.865 38.0007C496.4 40.2491 496.646 42.5569 496.596 44.8677V58.2767C496.675 60.6338 496.401 62.9894 495.784 65.2656C495.346 66.958 494.462 68.5017 493.224 69.7352C491.864 70.7898 490.301 71.5508 488.632 71.9701C486.381 72.4919 484.075 72.7375 481.765 72.7015H448.04L447.43 70.1009Z" fill="white"></path> <path d="M528.858 4.72217H507.566V72.7016H528.858V4.72217Z" fill="white"></path> <path d="M537.271 72.7422L554.378 4.72217H585.137L602.285 72.7422H580.058L578.717 65.4282H561.083L559.579 72.7422H537.271ZM564.008 50.9222H575.426L569.656 22.9259L564.008 50.9222Z" fill="white"></path> <path d="M436.54 169.163C433.679 169.168 430.827 168.827 428.048 168.147C425.935 167.76 423.984 166.756 422.441 165.262C420.93 163.778 419.825 161.931 419.231 159.899C418.542 157.246 418.214 154.512 418.255 151.772V101.671C418.174 98.7096 418.53 95.7522 419.312 92.8944C419.961 90.8556 421.089 89.0023 422.603 87.4902C424.297 86.1191 426.286 85.1594 428.414 84.6865C431.309 84.159 434.248 83.9141 437.19 83.9551H474.126L478.961 106.669H449.38C448.23 106.559 447.078 106.862 446.13 107.522C445.48 108.459 445.191 109.599 445.317 110.732V141.614C445.276 142.447 445.358 143.283 445.561 144.092C445.561 144.621 445.967 145.108 446.13 145.555C446.578 145.871 447.092 146.079 447.633 146.165C448.583 146.352 449.552 146.42 450.518 146.368H480.14L474.532 169.163H436.54Z" fill="white"></path> <path d="M505.612 169.164C503.653 169.263 501.694 168.952 499.862 168.253C498.029 167.553 496.362 166.48 494.966 165.101C493.613 163.713 492.555 162.064 491.856 160.255C491.158 158.446 490.834 156.515 490.903 154.577V98.747C490.829 96.7782 491.151 94.8146 491.849 92.9722C492.547 91.1298 493.607 89.4459 494.966 88.0198C496.359 86.637 498.025 85.561 499.859 84.8612C501.693 84.1614 503.652 83.8532 505.612 83.9565H549.171C551.148 83.8633 553.123 84.1758 554.975 84.8746C556.827 85.5734 558.516 86.6437 559.939 88.0198C561.294 89.4485 562.352 91.1329 563.049 92.9747C563.747 94.8164 564.071 96.7787 564.002 98.747V154.455C564 156.491 563.6 158.506 562.824 160.388C561.962 162.14 560.792 163.723 559.37 165.06C557.895 166.35 556.203 167.368 554.372 168.067C552.36 168.77 550.246 169.141 548.114 169.164H505.612ZM533.161 146.369C534.257 146.508 535.364 146.217 536.25 145.556C536.971 144.588 537.305 143.385 537.184 142.184V110.734C537.184 109.027 536.9 107.93 536.25 107.402C535.32 106.734 534.178 106.43 533.039 106.549H521.622C520.47 106.42 519.311 106.724 518.371 107.402C517.816 108.376 517.562 109.493 517.64 110.612V142.225C517.545 143.409 517.8 144.596 518.371 145.638C519.331 146.267 520.481 146.54 521.622 146.41L533.161 146.369Z" fill="white"></path> <path d="M577.334 83.957H603.421L624.469 122.112V83.957H651.286V169.165H624.875L603.827 131.864V169.165H577.334V83.957Z" fill="white"></path> <path d="M33.5771 169.164C30.6892 169.165 27.8112 168.824 25.0035 168.148C22.931 167.714 21.0187 166.715 19.4774 165.263C17.9456 163.796 16.8369 161.943 16.2674 159.9C15.5875 157.244 15.2462 154.514 15.2515 151.773V101.672C15.1981 98.7143 15.5397 95.7627 16.2674 92.8953C16.8581 90.84 17.9792 88.9762 19.518 87.4911C21.2783 86.1281 23.3179 85.1707 25.4911 84.6874C28.3445 84.1556 31.2438 83.9106 34.146 83.956H70.9597L75.9982 106.67H46.4172C45.3039 106.549 44.186 106.854 43.2885 107.523C42.9317 107.971 42.6687 108.486 42.5152 109.037C42.3616 109.589 42.3206 110.166 42.3945 110.733V141.615C42.3633 142.446 42.4315 143.278 42.5977 144.093C42.6548 144.645 42.8984 145.161 43.2885 145.556C43.713 145.859 44.1981 146.067 44.7106 146.166C45.6348 146.337 46.5751 146.405 47.5143 146.369H77.2172L71.366 169.164H33.5771Z" fill="#FDEE1E"></path> <path d="M102.699 169.164C100.727 169.266 98.7553 168.958 96.9088 168.258C95.0622 167.559 93.3811 166.484 91.9717 165.101C90.624 163.708 89.5698 162.059 88.8718 160.251C88.1738 158.443 87.8462 156.513 87.9084 154.577V98.7464C87.844 96.7787 88.1699 94.8177 88.8673 92.9765C89.5647 91.1354 90.6198 89.4506 91.9717 88.0193C93.3781 86.6322 95.0588 85.5543 96.9061 84.8546C98.7534 84.1548 100.726 83.8488 102.699 83.956H146.298C148.256 83.8724 150.21 84.1897 152.041 84.8885C153.871 85.5872 155.54 86.6526 156.944 88.0193C158.306 89.444 159.367 91.1277 160.065 92.9704C160.763 94.8132 161.083 96.7774 161.008 98.7464V154.455C161.064 156.509 160.618 158.545 159.707 160.387C159.005 162.199 157.859 163.805 156.375 165.06C153.242 167.682 149.287 169.12 145.201 169.123L102.699 169.164ZM130.045 146.369C131.174 146.443 132.298 146.159 133.255 145.556C133.861 144.542 134.118 143.357 133.986 142.183V110.733C134.124 109.572 133.867 108.398 133.255 107.401C132.297 106.805 131.167 106.547 130.045 106.67H118.668C118.102 106.48 117.494 106.452 116.913 106.589C116.332 106.726 115.8 107.022 115.378 107.444C114.956 107.866 114.66 108.397 114.524 108.979C114.387 109.56 114.415 110.167 114.604 110.733V142.387C114.604 144.174 114.604 145.19 115.336 145.8C116.301 146.452 117.472 146.726 118.627 146.572L130.045 146.369Z" fill="#FDEE1E"></path> <path d="M174.334 83.957H207.938L222.241 117.52L237.234 83.957H270.594V169.165H243.614V127.8L222.241 168.718L201.436 127.8V169.165H174.334V83.957Z" fill="#FDEE1E"></path> <path d="M311.306 83.957H284.488V169.124H311.306V83.957Z" fill="#FDEE1E"></path> <path d="M343.485 169.165C340.61 169.17 337.745 168.829 334.952 168.149C332.785 167.744 330.774 166.745 329.142 165.264C327.658 163.766 326.569 161.923 325.972 159.901C325.306 157.244 324.978 154.513 324.997 151.774V101.673C324.916 98.7062 325.3 95.7448 326.135 92.8965C326.703 90.8219 327.843 88.949 329.426 87.4922C331.13 86.1609 333.096 85.2054 335.196 84.6886C338.105 84.163 341.058 83.9181 344.013 83.9572H380.949L386.028 106.671H356.325C355.187 106.56 354.048 106.863 353.115 107.524C352.775 107.979 352.527 108.497 352.388 109.048C352.248 109.599 352.219 110.172 352.302 110.734V141.616C352.184 142.438 352.184 143.272 352.302 144.094C352.348 144.633 352.562 145.145 352.912 145.557C353.36 145.873 353.874 146.081 354.415 146.167C355.34 146.332 356.28 146.401 357.219 146.37H386.922L381.233 169.165H343.485Z" fill="#FDEE1E"></path> <path d="M98.1483 73.1873H75.7188V4.11084H98.1483V73.1873ZM76.6533 72.2528H97.2137V5.08604H76.6533V72.2528Z" fill="#939393"></path> <path d="M168.281 73.1873H146.542L130.289 44.7441V73.1873H108.266V4.11084H130.045L146.298 33.2855V4.19211H168.525L168.281 73.1873ZM147.111 72.2528H167.428V5.08604H147.111V36.9019L129.354 5.08604H109.038V72.2528H129.354V41.209L147.111 72.2528Z" fill="#939393"></path> <path d="M220.126 73.1885H178.111V4.11199H220.126C222.53 4.03369 224.933 4.26586 227.278 4.80276C229.098 5.35541 230.776 6.29833 232.194 7.56582C233.55 8.93928 234.481 10.6745 234.876 12.5637C235.533 14.957 235.807 17.4393 235.689 19.9183V57.3415C235.813 59.8368 235.525 62.3354 234.835 64.7368C234.421 66.5864 233.508 68.287 232.194 69.6534C230.856 71.0427 229.127 71.9922 227.237 72.3758C224.909 72.9359 222.521 73.2088 220.126 73.1885ZM179.046 72.2539H220.126C222.465 72.2883 224.8 72.029 227.074 71.4819C228.774 71.1334 230.331 70.2843 231.544 69.0439C232.766 67.7847 233.611 66.208 233.982 64.493C234.65 62.1707 234.938 59.7558 234.835 57.3415V19.9183C234.903 17.5724 234.616 15.2298 233.982 12.97C233.62 11.2397 232.775 9.64762 231.544 8.37848C230.229 7.23805 228.694 6.3805 227.034 5.85922C224.768 5.35399 222.447 5.13556 220.126 5.20909L179.046 5.08719V72.2539ZM210.943 55.0254H199.119V22.1938H210.902C211.984 22.0737 213.072 22.3637 213.95 23.0064C214.388 23.8742 214.597 24.839 214.559 25.8101V51.1653C214.619 52.169 214.394 53.1693 213.909 54.0502C213.046 54.6762 212.009 55.0172 210.943 55.0254ZM200.053 54.0909H210.943C211.772 54.1635 212.605 53.9941 213.34 53.6033C213.704 52.8878 213.873 52.0887 213.828 51.2872V25.932C213.863 25.1443 213.696 24.3606 213.34 23.6566C212.615 23.2375 211.777 23.053 210.943 23.1284H200.053V54.0909Z" fill="#939393"></path> <path d="M257.751 73.1872C256.108 73.2779 254.465 73.0248 252.925 72.4441C251.386 71.8633 249.985 70.9678 248.812 69.8147C246.637 67.4174 245.473 64.2731 245.561 61.0379V16.3414C245.443 13.0526 246.609 9.84697 248.812 7.40204C249.987 6.25728 251.391 5.37266 252.931 4.80564C254.471 4.23861 256.113 4.00186 257.751 4.11075H292.574C294.198 4.00577 295.827 4.24464 297.354 4.81177C298.88 5.37889 300.269 6.26152 301.432 7.40204C302.575 8.60591 303.46 10.0306 304.033 11.5887C304.606 13.1469 304.854 14.8056 304.763 16.4632V61.1598C304.849 62.841 304.514 64.5169 303.788 66.0358C303.154 67.5546 302.229 68.9349 301.066 70.0991C299.818 71.1971 298.349 72.0146 296.759 72.4965C295.144 73.1403 293.418 73.4579 291.68 73.4311L257.751 73.1872ZM257.751 5.20785C256.265 5.11597 254.776 5.33201 253.378 5.84243C251.979 6.35286 250.701 7.14666 249.624 8.17407C247.675 10.4292 246.62 13.3203 246.658 16.3007V60.9973C246.579 63.9918 247.656 66.9018 249.665 69.1239C250.691 70.1223 251.906 70.9061 253.238 71.4294C254.571 71.9526 255.995 72.2049 257.426 72.1714H291.842C293.476 72.2328 295.105 71.9704 296.637 71.3994C298.145 70.9763 299.535 70.2116 300.7 69.1646C301.783 68.148 302.641 66.9162 303.219 65.5482C303.944 64.1586 304.294 62.6041 304.235 61.0379V16.3414C304.296 14.8449 304.05 13.3519 303.512 11.9543C302.974 10.5567 302.155 9.28401 301.106 8.21471C300 7.10039 298.662 6.24262 297.188 5.70199C295.713 5.16137 294.138 4.95107 292.574 5.08595L257.751 5.20785ZM279.733 55.0242H270.591C270.08 55.0951 269.56 55.0595 269.063 54.9197C268.567 54.7798 268.105 54.5387 267.706 54.2115C267.067 53.378 266.776 52.3295 266.893 51.2859V25.8902C266.797 24.8736 267.087 23.8582 267.706 23.0458C268.112 22.477 269.006 22.2332 270.591 22.2332H279.652C280.69 22.1043 281.738 22.3808 282.578 23.0052C283.231 23.8328 283.537 24.8818 283.431 25.9308V51.2859C283.521 52.3271 283.232 53.3657 282.618 54.2115C282.217 54.5345 281.755 54.773 281.259 54.9127C280.763 55.0523 280.244 55.0903 279.733 55.0242ZM270.591 23.1271C269.087 23.1271 268.6 23.4115 268.437 23.6147C268.186 23.9323 268.002 24.298 267.897 24.6893C267.792 25.0807 267.769 25.4894 267.828 25.8902V51.2859C267.717 52.1022 267.921 52.93 268.397 53.602C268.397 53.602 268.925 54.0896 270.591 54.0896H279.733C280.518 54.1913 281.312 54.0035 281.968 53.5614C282.378 52.8767 282.562 52.081 282.496 51.2859V25.9308C282.562 25.1304 282.362 24.3308 281.928 23.6553C281.248 23.2324 280.448 23.0466 279.652 23.1271H270.591Z" fill="#939393"></path> <path d="M374.694 73.1873H352.996L336.743 44.7441V73.1873H314.598V4.11084H336.215L352.468 33.2042V4.27337H374.816L374.694 73.1873ZM353.524 72.2528H373.841V5.08604H353.524V36.8206L335.686 5.08604H315.37V72.1309H335.686V41.209L353.524 72.2528Z" fill="#939393"></path> <path d="M430.726 73.1873H384.404V4.11084H431.254L435.074 23.0459H406.631V30.3193H431.011V47.304H406.631V53.9272H435.399L430.726 73.1873ZM385.42 72.2528H430.117L434.18 55.0243H405.737V46.5319H430.117V31.4164H405.737V22.2739H434.18L430.726 5.20794H385.339L385.42 72.2528Z" fill="#939393"></path> <path d="M481.766 73.1878H447.634L443.571 54.0902H472.827C473.355 54.0902 473.477 54.0902 473.477 54.0902C473.477 54.0902 473.477 53.7651 473.477 53.2369V48.4828C473.477 47.4263 472.868 47.3044 472.421 47.3044H457.549C455.174 47.3838 452.799 47.1654 450.479 46.6543C448.77 46.3014 447.186 45.5022 445.887 44.3382C444.691 43.12 443.909 41.5562 443.652 39.8685C443.07 37.6278 442.81 35.3156 442.88 33.0015V19.3487C442.788 16.9617 443.076 14.5751 443.733 12.2786C444.03 10.4491 444.915 8.76608 446.253 7.48383C447.627 6.15958 449.369 5.28145 451.251 4.96457C453.524 4.41342 455.862 4.18094 458.199 4.2738H492.615L496.679 23.2089H465.797C465.582 23.174 465.363 23.174 465.147 23.2089C465.09 23.5178 465.09 23.8346 465.147 24.1435V29.4664C465.082 29.7196 465.082 29.9853 465.147 30.2385C465.373 30.3939 465.646 30.4658 465.919 30.4416H482.498C484.815 30.4153 487.129 30.6194 489.405 31.0511C491.119 31.3711 492.699 32.1895 493.95 33.4038C495.2 34.6181 496.065 36.1743 496.435 37.8775C496.993 40.164 497.253 42.5132 497.207 44.8664V58.2754C497.278 60.6883 496.99 63.0984 496.354 65.4268C495.877 67.1777 494.953 68.7742 493.672 70.059C492.26 71.1773 490.625 71.9809 488.877 72.4157C486.549 72.9713 484.159 73.2307 481.766 73.1878ZM448.406 72.2532H481.766C484.035 72.3128 486.302 72.0807 488.511 71.5625C490.122 71.1623 491.631 70.4286 492.94 69.4089C494.061 68.2721 494.885 66.8765 495.338 65.3456C495.964 63.1127 496.238 60.7959 496.15 58.4785V44.907C496.206 42.6362 495.96 40.368 495.419 38.1619C495.112 36.6116 494.342 35.1909 493.21 34.088C492.078 32.9851 490.638 32.252 489.08 31.9857C486.868 31.5865 484.623 31.396 482.376 31.4168H465.797C465.279 31.438 464.771 31.264 464.375 30.9292C464.106 30.5363 463.977 30.0637 464.009 29.5883V24.2654C463.956 23.7243 464.084 23.1808 464.375 22.7213C464.746 22.5569 465.148 22.4738 465.554 22.4775H495.297L491.681 5.08647H458.036C455.769 5.0004 453.5 5.21907 451.291 5.7366C449.587 6.04048 448.006 6.83069 446.74 8.01206C445.536 9.18058 444.739 10.7045 444.465 12.3598C443.833 14.5922 443.546 16.9078 443.612 19.2268V32.8796C443.542 35.1267 443.803 37.3717 444.384 39.5435C444.612 41.0792 445.324 42.5023 446.415 43.6068C447.56 44.6484 448.963 45.3641 450.479 45.6791C452.736 46.1518 455.041 46.3564 457.346 46.2886H472.461C472.737 46.2752 473.012 46.3218 473.268 46.425C473.524 46.5282 473.754 46.6856 473.943 46.8864C474.133 47.0872 474.276 47.3266 474.364 47.5882C474.452 47.8497 474.482 48.1272 474.452 48.4015V53.0337C474.5 53.5487 474.371 54.0646 474.086 54.4965C473.9 54.6635 473.681 54.7896 473.443 54.8665C473.205 54.9435 472.954 54.9697 472.705 54.9435H444.587L448.406 72.2532Z" fill="#939393"></path> <path d="M529.301 73.1873H507.074V4.11084H529.301V73.1873ZM507.928 72.2528H528.244V5.08604H507.928V72.2528Z" fill="#939393"></path> <path d="M602.811 73.1874H579.569L578.228 66.036H561.365L559.902 73.3499H536.66L554.011 4.27344H585.42V4.63914L602.811 73.1874ZM580.341 72.2528H601.633L584.689 5.08611H554.742L537.838 72.131H559.13L560.634 64.817H579L580.341 72.2528ZM575.993 51.3674H563.437L569.654 20.608L575.993 51.3674ZM564.575 50.4734H574.855L569.654 25.4027L564.575 50.4734Z" fill="#939393"></path> <path d="M474.897 169.611H436.539C433.636 169.643 430.741 169.301 427.925 168.595C425.738 168.174 423.72 167.13 422.114 165.588C420.558 164.054 419.412 162.154 418.782 160.062C418.07 157.303 417.742 154.459 417.807 151.61V101.672C417.716 98.6699 418.072 95.6708 418.863 92.7734C419.533 90.6565 420.704 88.7328 422.277 87.166C424.034 85.7236 426.109 84.7207 428.331 84.2404C431.255 83.7224 434.22 83.4776 437.189 83.509H474.49L479.488 107.158H449.338C448.315 107.071 447.29 107.313 446.413 107.848C445.858 108.702 445.614 109.721 445.722 110.733V141.615C445.672 142.408 445.754 143.205 445.966 143.971C446.012 144.257 446.108 144.532 446.25 144.784C446.265 144.892 446.265 145.001 446.25 145.109C446.615 145.361 447.032 145.527 447.469 145.597C448.4 145.715 449.342 145.715 450.273 145.597H480.504L474.897 169.611ZM437.189 84.2811C434.276 84.2556 431.366 84.4867 428.493 84.9718C426.449 85.4388 424.533 86.3549 422.886 87.6536C421.453 89.1362 420.382 90.9302 419.757 92.8953C419 95.7017 418.657 98.6039 418.742 101.51V151.61C418.687 154.349 419.001 157.082 419.676 159.737C420.249 161.692 421.312 163.469 422.764 164.897C424.257 166.327 426.136 167.288 428.168 167.66C430.908 168.329 433.719 168.657 436.539 168.636H474.165L479.488 146.856H450.435C449.45 146.977 448.454 146.977 447.469 146.856C446.869 146.73 446.302 146.481 445.803 146.125C445.817 146.003 445.817 145.881 445.803 145.759C445.578 145.403 445.439 145 445.397 144.581C445.18 143.746 445.098 142.882 445.153 142.021V110.733C445.019 109.48 445.352 108.221 446.088 107.198C447.123 106.452 448.393 106.106 449.663 106.223H478.635L474.043 84.4436L437.189 84.2811Z" fill="#939393"></path> <path d="M548.079 169.611H505.617C503.59 169.696 501.566 169.356 499.677 168.615C497.788 167.873 496.075 166.745 494.646 165.304C493.276 163.861 492.21 162.156 491.511 160.292C490.813 158.428 490.498 156.443 490.583 154.455V98.7465C490.489 96.7263 490.799 94.7077 491.497 92.8096C492.195 90.9115 493.266 89.1722 494.646 87.6943C496.097 86.2985 497.82 85.2172 499.708 84.518C501.596 83.8189 503.607 83.5169 505.617 83.6309H549.176C551.204 83.5193 553.234 83.822 555.141 84.5206C557.048 85.2192 558.793 86.2991 560.269 87.6943C561.64 89.1786 562.705 90.919 563.402 92.8155C564.099 94.7121 564.415 96.7275 564.332 98.7465V154.455C564.376 156.52 563.966 158.569 563.13 160.458C562.294 162.346 561.054 164.028 559.497 165.385C557.992 166.717 556.257 167.763 554.377 168.473C552.358 169.21 550.228 169.595 548.079 169.611ZM505.617 84.2811C503.707 84.1908 501.8 84.5062 500.021 85.2066C498.242 85.9069 496.632 86.9764 495.296 88.3444C494.007 89.7403 493.009 91.3791 492.36 93.1651C491.711 94.9511 491.425 96.8485 491.517 98.7465V154.455C491.434 156.321 491.725 158.185 492.374 159.937C493.023 161.689 494.017 163.292 495.296 164.654C496.638 166.013 498.249 167.077 500.027 167.777C501.804 168.477 503.709 168.797 505.617 168.717H548.079C550.157 168.722 552.219 168.365 554.174 167.66C555.941 166.987 557.578 166.011 559.009 164.775C560.385 163.472 561.514 161.93 562.341 160.225C563.128 158.417 563.529 156.466 563.52 154.495V98.7465C563.57 96.8293 563.236 94.9214 562.539 93.135C561.841 91.3486 560.793 89.7198 559.456 88.3444C558.087 86.9874 556.454 85.9264 554.657 85.2274C552.861 84.5284 550.94 84.2063 549.014 84.2811H505.617ZM533.167 146.694H521.627C520.36 146.834 519.087 146.501 518.051 145.759C517.448 144.64 517.18 143.37 517.279 142.102V110.733C517.185 109.513 517.469 108.293 518.092 107.239C519.119 106.443 520.416 106.078 521.708 106.223H533.126C534.379 106.096 535.635 106.428 536.661 107.158C537.089 107.664 537.405 108.255 537.587 108.893C537.769 109.53 537.814 110.199 537.717 110.855V142.346C537.84 143.648 537.478 144.95 536.702 146.003C536.2 146.376 535.629 146.644 535.021 146.791C534.414 146.938 533.783 146.96 533.167 146.856V146.694ZM518.742 145.109C519.599 145.653 520.619 145.883 521.627 145.759H533.167C534.141 145.87 535.122 145.624 535.93 145.068C536.555 144.182 536.843 143.101 536.742 142.021V110.733C536.893 109.668 536.615 108.587 535.97 107.726C535.093 107.191 534.068 106.949 533.045 107.036H521.627C520.588 106.918 519.541 107.162 518.66 107.726C518.26 108.633 518.079 109.622 518.132 110.611V142.224C518.059 143.276 518.269 144.329 518.742 145.272V145.109Z" fill="#939393"></path> <path d="M651.732 169.61H624.63L604.313 133.609V169.61H577.008V83.5083H603.866L624.183 120.322V83.5083H651.895L651.732 169.61ZM625.158 168.676H650.798V84.4429H624.914V123.898L603.135 84.4429H577.78V168.676H603.379V130.074L625.158 168.676Z" fill="#939393"></path> <path d="M144.992 169.692H102.856C100.777 169.784 98.703 169.441 96.765 168.685C94.8269 167.929 93.0678 166.778 91.6002 165.304C90.2261 163.813 89.1598 162.066 88.4625 160.162C87.7652 158.259 87.4506 156.236 87.5368 154.211V98.9902C87.4402 96.939 87.7493 94.8889 88.4466 92.9575C89.1439 91.026 90.2155 89.2512 91.6002 87.7348C93.0777 86.2794 94.8404 85.1454 96.7774 84.4041C98.7144 83.6629 100.784 83.3304 102.856 83.4277H146.049C148.12 83.3353 150.188 83.67 152.124 84.411C154.061 85.152 155.824 86.2834 157.304 87.7348C158.736 89.229 159.855 90.9945 160.595 92.9274C161.334 94.8604 161.68 96.9217 161.611 98.9902V154.211C161.668 156.391 161.194 158.553 160.23 160.509C159.459 162.405 158.247 164.091 156.695 165.426C153.394 168.116 149.25 169.555 144.992 169.489V169.692ZM102.856 85.2562C101.033 85.1509 99.2094 85.4292 97.5016 86.0732C95.7938 86.7171 94.2401 87.7123 92.941 88.9944C91.6989 90.3347 90.7359 91.9087 90.1081 93.6248C89.4802 95.3409 89.2001 97.1648 89.2841 98.9902V154.211C89.2069 156.005 89.4908 157.796 90.119 159.478C90.7472 161.16 91.7069 162.699 92.941 164.003C94.2133 165.342 95.7545 166.396 97.4633 167.097C99.1721 167.797 101.01 168.127 102.856 168.067H144.992C146.976 168.059 148.943 167.701 150.803 167.01C152.494 166.337 154.071 165.405 155.476 164.247C156.801 163.146 157.858 161.756 158.564 160.184C159.423 158.457 159.841 156.545 159.783 154.617V98.9902C159.845 97.1535 159.539 95.3229 158.883 93.6063C158.227 91.8896 157.234 90.3215 155.963 88.9944C154.654 87.7266 153.099 86.7406 151.393 86.0977C149.688 85.4547 147.869 85.1683 146.049 85.2562H102.856ZM130.039 147.303H118.824C118.108 147.406 117.378 147.362 116.68 147.173C115.981 146.985 115.328 146.655 114.761 146.206C113.932 145.024 113.584 143.572 113.786 142.143V110.733C113.618 109.383 113.967 108.019 114.761 106.914C115.325 106.458 115.977 106.125 116.677 105.936C117.377 105.747 118.108 105.706 118.824 105.817H130.039C131.376 105.731 132.704 106.088 133.818 106.832C134.611 108.029 134.943 109.473 134.753 110.896V142.102C134.937 143.519 134.621 144.956 133.859 146.165C132.75 146.965 131.404 147.366 130.039 147.303ZM118.784 107.767C116.996 107.767 116.386 108.133 116.183 108.336C115.783 109.111 115.627 109.989 115.736 110.855V142.224C115.61 143.16 115.78 144.112 116.224 144.946C116.427 144.946 117.077 145.434 118.784 145.434H130.039C130.93 145.502 131.821 145.304 132.599 144.865C132.99 144.043 133.144 143.129 133.046 142.224V110.733C133.146 109.815 132.991 108.888 132.599 108.051C131.819 107.617 130.93 107.419 130.039 107.483L118.784 107.767Z" fill="#FAB018"></path> <path d="M222.201 170.586L202.412 131.619V169.895H173.604V83.2246H208.629L222.241 115.244L236.585 83.2246H271.326V169.895H242.599V131.538L222.201 170.586ZM244.468 168.067H269.498V85.0531H237.763L222.201 119.876L207.248 85.0531H175.432V168.067H200.584V123.939L222.241 166.563L244.468 124.02V168.067Z" fill="#FAB018"></path> <path d="M312.24 170.018H283.797V83.1035H312.24V170.018ZM285.422 168.19H310.412V84.932H285.422V168.19Z" fill="#FAB018"></path> <path d="M381.97 170.058H343.491C340.534 170.087 337.585 169.746 334.714 169.042C332.474 168.555 330.401 167.491 328.7 165.954C327.095 164.348 325.921 162.364 325.287 160.184C324.563 157.384 324.208 154.502 324.23 151.61V101.672C324.171 98.61 324.568 95.5561 325.409 92.6109C326.099 90.368 327.392 88.3579 329.147 86.8004C330.978 85.3849 333.08 84.3614 335.323 83.7935C338.316 83.2796 341.348 83.0348 344.384 83.0621H381.97L387.049 107.442H356.331C355.426 107.355 354.516 107.554 353.73 108.011C353.364 108.417 353.243 109.189 353.243 110.571V141.452C353.14 142.193 353.14 142.946 353.243 143.687V143.931C353.303 144.213 353.428 144.477 353.608 144.703C353.897 144.913 354.231 145.052 354.583 145.109C355.448 145.197 356.319 145.197 357.184 145.109H388.065L381.97 170.058ZM344.019 84.7281C341.119 84.7041 338.223 84.9353 335.364 85.4189C333.418 85.9323 331.594 86.8304 330 88.06C328.572 89.3895 327.544 91.0928 327.034 92.9766C326.241 95.7495 325.871 98.6263 325.937 101.51V151.61C325.913 154.347 326.227 157.077 326.872 159.737C327.466 161.575 328.466 163.255 329.797 164.654C331.275 165.966 333.066 166.876 334.998 167.295C337.658 167.947 340.387 168.274 343.125 168.27H380.345L386.034 147.303H357.59C356.617 147.391 355.638 147.391 354.665 147.303C354.05 147.207 353.467 146.97 352.958 146.613H352.674C352.238 146.09 351.957 145.457 351.861 144.784C351.747 143.907 351.747 143.02 351.861 142.143V110.733C351.758 110.017 351.802 109.287 351.991 108.589C352.18 107.89 352.509 107.237 352.958 106.67C354.049 105.874 355.391 105.499 356.737 105.614H385.18L380.873 84.7687L344.019 84.7281Z" fill="#FAB018"></path> <path d="M71.8564 169.611H33.7017C30.7749 169.631 27.856 169.303 25.0062 168.636C22.8084 168.133 20.7784 167.069 19.1144 165.547C17.5082 163.966 16.3453 161.99 15.7418 159.818C15.0342 157.058 14.6927 154.216 14.726 151.366V101.916C14.6722 98.902 15.0276 95.8948 15.7825 92.9765C16.4 90.792 17.5928 88.8133 19.2363 87.2472C21.0848 85.8205 23.2191 84.8088 25.4938 84.281C28.3934 83.7928 31.3304 83.5617 34.2706 83.5902H71.5313L76.8136 107.97H46.4199C45.5541 107.89 44.6854 108.089 43.9413 108.539C43.4551 109.283 43.2531 110.177 43.3725 111.058V141.615C43.276 142.37 43.276 143.135 43.3725 143.89C43.4098 144.255 43.567 144.598 43.8194 144.865C44.1295 145.063 44.4741 145.201 44.8352 145.272C45.673 145.354 46.5168 145.354 47.3545 145.272H77.9513L71.8564 169.611ZM20.3334 88.5475C18.949 89.9125 17.9291 91.6029 17.3672 93.4641C16.6796 96.2276 16.3518 99.0684 16.392 101.916V151.366C16.3601 154.104 16.6741 156.834 17.3265 159.493C17.9066 161.297 18.9423 162.92 20.3334 164.207C21.7386 165.533 23.4818 166.447 25.3719 166.848C28.0359 167.471 30.7628 167.784 33.4986 167.782H70.2717L75.7571 147.303H47.3139C46.3188 147.347 45.3222 147.265 44.3476 147.059C43.6828 146.936 43.0564 146.657 42.5192 146.247C41.9788 145.707 41.6232 145.01 41.5033 144.256C41.4039 143.392 41.4039 142.519 41.5033 141.655V110.733C41.4279 110.044 41.4935 109.346 41.6961 108.682C41.8986 108.019 42.234 107.403 42.6817 106.873C43.7538 106.07 45.086 105.693 46.4199 105.817H74.5381L70.0685 85.1749H34.3519C31.5476 85.1314 28.7453 85.3491 25.9814 85.8251C23.9296 86.329 22.0057 87.2563 20.3334 88.5475Z" fill="#FAB018"></path> <path d="M21.0228 123.331C20.5378 123.331 20.0727 123.138 19.7298 122.795C19.3869 122.452 19.1943 121.987 19.1943 121.502V101.551C19.0157 99.8083 19.1933 98.0473 19.7165 96.3753C20.2397 94.7032 21.0975 93.155 22.2377 91.8248C23.3779 90.4945 24.7767 89.4101 26.3491 88.6373C27.9215 87.8645 29.6346 87.4196 31.3843 87.3296H43.1273C43.616 87.3295 44.0854 87.5208 44.4348 87.8626C44.7842 88.2044 44.9858 88.6694 44.9964 89.1581C44.986 89.6505 44.7858 90.12 44.4375 90.4683C44.0892 90.8166 43.6197 91.0168 43.1273 91.0272H31.5874C30.3233 91.1017 29.0877 91.4335 27.9562 92.0021C26.8248 92.5708 25.8213 93.3645 25.0072 94.3345C24.1932 95.3045 23.5857 96.4304 23.222 97.6434C22.8583 98.8564 22.7459 100.131 22.8919 101.389V121.502C22.892 121.746 22.8434 121.987 22.7489 122.211C22.6545 122.436 22.5162 122.639 22.3421 122.81C22.1679 122.98 21.9616 123.114 21.735 123.203C21.5084 123.293 21.2663 123.336 21.0228 123.331Z" fill="white"></path> <path d="M331.418 117.642C330.929 117.631 330.464 117.43 330.122 117.08C329.78 116.731 329.589 116.262 329.589 115.773V101.551C329.405 99.8073 329.578 98.044 330.099 96.3694C330.62 94.6948 331.477 93.1443 332.619 91.8128C333.76 90.4812 335.161 89.3968 336.736 88.6259C338.311 87.855 340.027 87.4139 341.779 87.3296H358.479C358.719 87.3296 358.957 87.3769 359.179 87.4688C359.401 87.5607 359.603 87.6954 359.772 87.8651C359.942 88.0349 360.077 88.2365 360.169 88.4583C360.261 88.6802 360.308 88.918 360.308 89.1581C360.308 89.6468 360.117 90.1162 359.775 90.4656C359.433 90.815 358.968 91.0166 358.479 91.0272H341.982C340.711 91.0911 339.467 91.415 338.326 91.979C337.185 92.543 336.171 93.3351 335.349 94.3063C334.526 95.2774 333.912 96.407 333.543 97.6252C333.174 98.8434 333.059 100.124 333.205 101.389V115.773C333.196 116.252 333.007 116.71 332.676 117.056C332.345 117.402 331.896 117.611 331.418 117.642Z" fill="white"></path> <path d="M94.2407 124.021C93.7519 124.021 93.2825 123.83 92.9332 123.488C92.5838 123.146 92.3822 122.681 92.3715 122.193C92.3715 122.193 92.1684 109.068 92.3715 99.0318C92.434 95.8183 93.7383 92.7539 96.011 90.4812C98.2836 88.2085 101.348 86.9042 104.562 86.8418H114.76C115.001 86.8418 115.238 86.8891 115.46 86.981C115.682 87.0729 115.884 87.2076 116.053 87.3773C116.223 87.5471 116.358 87.7487 116.45 87.9706C116.542 88.1924 116.589 88.4302 116.589 88.6703C116.589 89.1591 116.398 89.6284 116.056 89.9778C115.714 90.3272 115.249 90.5288 114.76 90.5394H104.805C102.495 90.5606 100.285 91.4878 98.6514 93.1216C97.0176 94.7554 96.0904 96.9652 96.0692 99.2756C95.866 109.231 96.0692 122.152 96.0692 122.274C96.0803 122.763 95.8993 123.237 95.565 123.594C95.2308 123.951 94.7699 124.163 94.2813 124.184L94.2407 124.021Z" fill="white"></path> <path d="M179.981 166.523C179.741 166.523 179.503 166.475 179.281 166.383C179.059 166.292 178.858 166.157 178.688 165.987C178.518 165.817 178.383 165.616 178.292 165.394C178.2 165.172 178.152 164.934 178.152 164.694V89.035C178.152 88.7949 178.2 88.5572 178.292 88.3353C178.383 88.1135 178.518 87.9119 178.688 87.7421C178.858 87.5723 179.059 87.4376 179.281 87.3457C179.503 87.2538 179.741 87.2065 179.981 87.2065H195.056C195.545 87.2064 196.014 87.3978 196.363 87.7396C196.713 88.0813 196.914 88.5464 196.925 89.035C196.915 89.5275 196.714 89.9969 196.366 90.3452C196.018 90.6935 195.548 90.8938 195.056 90.9042H182.053V164.694C182.055 164.956 182.001 165.216 181.895 165.455C181.788 165.695 181.631 165.908 181.434 166.082C181.238 166.255 181.006 166.384 180.756 166.46C180.505 166.536 180.241 166.558 179.981 166.523Z" fill="white"></path> <path d="M226.585 124.752C226.331 124.813 226.067 124.813 225.813 124.752C225.59 124.655 225.389 124.515 225.221 124.339C225.052 124.164 224.921 123.956 224.834 123.729C224.747 123.502 224.706 123.26 224.714 123.017C224.721 122.774 224.778 122.535 224.879 122.314L240.279 88.4261C240.426 88.1092 240.662 87.8412 240.957 87.6539C241.252 87.4667 241.595 87.368 241.945 87.3696H253.403C253.888 87.3696 254.353 87.5623 254.696 87.9052C255.039 88.2481 255.232 88.7132 255.232 89.1981C255.232 89.6869 255.04 90.1563 254.699 90.5057C254.357 90.855 253.892 91.0566 253.403 91.0673H243.164L228.251 123.818C228.083 124.109 227.84 124.349 227.547 124.514C227.253 124.678 226.921 124.761 226.585 124.752Z" fill="white"></path> <path d="M305.047 167.823C304.551 167.823 304.076 167.626 303.725 167.276C303.375 166.925 303.178 166.45 303.178 165.954V94.1143C303.244 93.6711 303.467 93.2663 303.806 92.9736C304.145 92.681 304.578 92.52 305.027 92.52C305.475 92.52 305.908 92.681 306.247 92.9736C306.587 93.2663 306.809 93.6711 306.875 94.1143V165.954C306.875 166.443 306.684 166.912 306.342 167.261C306.001 167.611 305.536 167.812 305.047 167.823Z" fill="white"></path></svg>