<svg viewBox="0 0 113 110" fill="none" xmlns="http://www.w3.org/2000/svg"><path d="M112.936 29.8738C112.936 25.8104 104.362 16.4241 104.565 16.7086C99.7704 9.3946 97.2917 8.58193 89.5714 3.21835C78.8442 -4.21754 69.7424 8.82575 55.3988 23.0067C51.0104 17.0743 51.7825 18.212 51.1323 17.3587C31.3846 -9.29669 12.4901 8.58194 10.2553 15.8553C8.75187 20.6094 8.9144 19.5529 30.0031 48.3619C1.15345 76.8051 1.27535 75.8299 1.55979 80.8685C1.79163 83.1917 2.8262 85.3614 4.48538 87.0041C26.3461 111.872 27.8901 119.064 52.3513 94.5619C61.0062 85.9476 58.04 86.4352 63.6474 93.9524C77.7065 112.847 77.422 113.944 98.7951 101.47C100.024 100.898 101.116 100.073 102.001 99.0468C102.886 98.0209 103.542 96.8185 103.926 95.5196C104.311 94.2206 104.414 92.8547 104.23 91.5126C104.046 90.1705 103.578 88.883 102.858 87.7355C80.632 57.6262 80.9978 65.8748 97.1292 49.9872C113.261 34.0996 113.139 34.0183 112.936 29.8738Z" fill="#231F20"></path> <path d="M102.004 15.7327C102.004 11.6694 99.6882 10.0847 93.8776 6.14329L89.5705 3.2177C87.0346 1.66544 84.0479 1.01732 81.0967 1.37884C78.1454 1.74037 75.4035 3.09026 73.3172 5.20873L54.9916 23.2905L41.6233 5.20873C39.6764 3.08771 37.0417 1.72422 34.1858 1.35979C31.3299 0.995368 28.4372 1.65353 26.0201 3.2177L20.9003 6.14329C14.0333 10.2066 11.4734 11.5881 10.1325 15.8546C8.79163 20.1211 8.87287 19.918 20.5752 35.6024L29.8803 48.1581C24.7605 53.2372 20.6159 57.3005 17.2433 60.5918C0.990048 76.3982 0.990011 76.3982 1.39634 80.5428C1.4507 81.8221 1.80666 83.0705 2.43512 84.1862C3.06357 85.3019 3.9468 86.2533 5.01276 86.9628L9.56367 90.1322C15.2117 94.1955 16.5526 95.0488 20.5346 95.0488C26.2233 95.0488 27.1579 94.1143 41.1763 80.0958L48.1652 73.1069L61.4523 91.1074C63.3939 93.2348 66.0261 94.606 68.8822 94.9779C71.7383 95.3498 74.6338 94.6983 77.0555 93.1391L87.6201 86.9628C90.1664 85.5914 92.0871 83.2924 92.9837 80.5428C93.3799 79.3264 93.4834 78.0337 93.2857 76.7699C93.088 75.506 92.5947 74.3066 91.846 73.2694L73.3172 48.1581L86.1167 35.5211C102.167 19.8367 102.167 19.8367 102.004 15.7327Z" fill="#231F20"></path> <path d="M20.7361 96.5129C16.1851 96.5129 14.4785 95.3345 8.78989 91.3119C7.61152 90.4992 6.1487 89.4427 4.32021 88.2237C3.06855 87.3748 2.03154 86.2463 1.29107 84.9276C0.550595 83.6088 0.127008 82.1359 0.0537654 80.6253C-0.0820717 79.4502 0.0402289 78.2596 0.412196 77.1367C0.784162 76.0138 1.39682 74.9856 2.20732 74.124C4.23898 71.5641 8.30229 67.582 16.3477 59.6179L28.0907 48.0375L19.5171 36.4976C15.8391 31.864 12.4338 27.0205 9.31814 21.9916C8.70052 21.0339 8.33558 19.9353 8.25742 18.7985C8.17926 17.6616 8.39042 16.5234 8.87117 15.4902C10.3746 10.6549 13.3002 8.98891 20.3297 4.92559H20.6954L25.4089 2.20315C28.1833 0.421673 31.5007 -0.315312 34.7684 0.123859C38.0361 0.563029 41.0413 2.14974 43.2469 4.60052L55.4368 21.1382L72.3809 4.43798C74.8005 2.05737 77.9476 0.555386 81.3202 0.171491C84.584 -0.303406 87.9087 0.433818 90.6658 2.2438L94.7292 5.00686H95.0136C100.905 9.07018 103.587 10.858 103.75 15.6934C103.917 16.8664 103.814 18.0623 103.448 19.1892C103.081 20.3162 102.462 21.3443 101.637 22.1947C99.6052 24.7546 95.6231 28.696 87.659 36.5789L87.3339 36.8633L75.7128 48.3219L93.5508 72.458C94.4301 73.6743 95.0129 75.0793 95.2528 76.5608C95.4926 78.0423 95.3829 79.5594 94.9323 80.991C93.872 84.0869 91.7 86.6788 88.8374 88.2644L78.3134 94.4406C75.9138 95.8176 73.197 96.5458 70.4305 96.5535C68.5312 96.6236 66.6419 96.2485 64.9134 95.4583C63.1849 94.6681 61.6651 93.4847 60.4754 92.0026L48.2854 75.7493L43.3281 80.5034L42.7187 81.1129C38.4456 85.6775 33.8999 89.979 29.1065 93.9937C26.7425 95.8755 23.746 96.7774 20.7361 96.5129ZM33.1292 2.77202C30.9757 2.79716 28.8641 3.37051 26.9936 4.43798L22.2395 7.20104L21.9144 7.40422C15.2099 11.2237 12.9751 12.524 11.8374 16.2623C11.476 16.947 11.3078 17.7172 11.3507 18.4903C11.3937 19.2633 11.6462 20.0101 12.0812 20.6507C15.1296 25.5746 18.4532 30.3226 22.0363 34.8723C24.5149 38.1636 27.5625 42.2675 31.3413 47.3873L32.0727 48.3625L31.1788 49.2565L18.5418 61.6902C2.97931 77.0496 2.97934 77.0496 3.14187 80.5441C3.19016 81.5948 3.48357 82.6198 3.9986 83.537C4.51364 84.4541 5.23601 85.2382 6.10808 85.8264L10.6184 88.9551C16.1851 93.0185 17.1603 93.5467 20.6142 93.5467C21.7561 93.7075 22.9189 93.6318 24.0303 93.3242C25.1418 93.0166 26.178 92.4838 27.0748 91.7588C31.7354 87.8113 36.1714 83.6059 40.3619 79.1625L40.9714 78.553L47.3915 72.0923L48.773 70.7108L63.1978 90.296C64.0763 91.3633 65.1903 92.2124 66.4523 92.7764C67.7143 93.3404 69.09 93.6041 70.4711 93.5467C72.6277 93.5439 74.7449 92.969 76.6068 91.8807L87.1714 85.7045C89.3723 84.501 91.0403 82.5139 91.8442 80.1377C92.1741 79.126 92.2614 78.0508 92.0991 76.9991C91.9367 75.9474 91.5293 74.9486 90.9097 74.0834L71.6495 47.9968L72.5028 47.1435L85.0178 34.9536L85.3023 34.6691C100.743 19.4723 100.743 19.4723 100.58 15.9372C100.58 12.6459 99.0363 11.5488 93.1039 7.52611H92.8601L88.7967 4.76305C86.5943 3.47345 84.0254 2.9532 81.4948 3.28424C78.9641 3.61529 76.6155 4.77882 74.8189 6.59155L55.1118 26.0549L40.6057 6.38839C39.7451 5.22565 38.6152 4.28912 37.313 3.65923C36.0107 3.02933 34.575 2.72488 33.1292 2.77202Z" fill="#231F20"></path> <path d="M86.1962 76.7233C86.4687 77.2052 86.6399 77.7378 86.6992 78.2882C86.7585 78.8386 86.7047 79.3954 86.5411 79.9243C86.3774 80.4532 86.1074 80.9431 85.7477 81.3639C85.3879 81.7847 84.946 82.1275 84.4489 82.3714L73.925 88.507C72.9515 89.1012 71.8041 89.3446 70.6732 89.1967C69.5424 89.0489 68.4961 88.5188 67.7081 87.6943L49.8701 63.3144C23.4585 89.5228 24.7181 89.1165 21.4268 89.1165C19.3952 89.1165 19.3952 88.7914 9.88699 82.2088C9.44408 81.9106 9.07734 81.5126 8.81622 81.0468C8.55511 80.581 8.40688 80.0605 8.38352 79.527C8.38352 77.2516 7.4896 78.7144 38.4928 47.9956C15.8194 17.1956 16.2664 18.6991 16.9571 16.383C17.6479 14.0669 18.5012 14.1482 29.5941 7.64683C30.5887 6.9956 31.7842 6.72351 32.9627 6.88014C34.1412 7.03677 35.2242 7.6117 36.0141 8.50013L53.9334 32.8801L78.3134 8.50013C79.1687 7.63311 80.29 7.07789 81.498 6.9232C82.706 6.76851 83.931 7.0233 84.9772 7.64683C94.3635 14.1482 95.1761 14.2701 95.2574 16.383C95.3387 18.4959 96.1107 17.2363 65.1075 47.9956L86.1962 76.7233Z" fill="#939393"></path> <path d="M9.72982 78.6741L14.2808 81.8435C19.0349 85.1754 18.9942 85.1754 19.8475 85.1754H20.5383C24.8523 81.53 28.9243 77.6074 32.7282 73.4324L45.9341 60.2672L48.2502 57.9512L67.7948 84.444C68.1664 84.8455 68.6681 85.1024 69.211 85.1693C69.7539 85.2363 70.303 85.1089 70.761 84.8097L81.3256 78.6741C81.7995 78.4028 82.1601 77.9702 82.3415 77.4551C82.4523 77.2344 82.5099 76.9909 82.5099 76.744C82.5099 76.4971 82.4523 76.2536 82.3415 76.0329L60.3182 46.2082L61.6185 44.9079L77.8718 28.6546C82.5145 24.4409 86.8974 19.9494 90.9963 15.205V14.7987C90.9963 14.0266 90.9963 13.9454 85.8765 10.4509L81.5287 7.48466C81.0473 7.19129 80.4814 7.06788 79.9215 7.13418C79.3617 7.20048 78.8402 7.45266 78.4406 7.85036L51.4602 34.5058L31.8343 7.97227C31.456 7.56768 30.9473 7.30927 30.3974 7.24239C29.8476 7.17552 29.2917 7.30446 28.8274 7.60657L23.8296 10.4915C17.7752 13.986 17.7346 14.0673 17.4908 14.8393V15.2863C20.3622 20.0571 23.5666 24.6193 27.0802 28.939C30.0871 33.0023 33.9473 38.1628 38.9045 44.9079L39.8797 46.2082L38.5794 47.5084L22.3261 63.4366C17.6428 67.7186 13.2066 72.2633 9.03906 77.0488V77.4551C9.03918 77.7006 9.1029 77.942 9.22395 78.1556C9.345 78.3692 9.51925 78.5478 9.72982 78.6741Z" fill="white"></path> <path d="M29.8039 28.5317C29.6933 28.5333 29.5838 28.5084 29.4848 28.4589C29.3858 28.4094 29.3002 28.3368 29.2351 28.2473L22.0024 18.3734C21.9549 18.2143 21.9549 18.0449 22.0024 17.8858C22.016 17.801 22.0487 17.7204 22.098 17.65C22.1472 17.5796 22.2118 17.5213 22.2868 17.4795C22.407 17.4502 22.5324 17.4502 22.6525 17.4795H22.8963L23.2214 17.7233L30.4541 27.5972C30.5712 27.7246 30.6361 27.8914 30.6361 28.0644C30.6361 28.2375 30.5712 28.4043 30.4541 28.5317C30.3647 28.6117 30.249 28.6559 30.129 28.6559C30.0091 28.6559 29.8933 28.6117 29.8039 28.5317Z" fill="#939393"></path> <path d="M20.0102 15.3672C20.0995 15.1706 20.2448 15.0047 20.4279 14.8903C20.611 14.7759 20.8237 14.7181 21.0395 14.7241C21.2553 14.73 21.4646 14.7995 21.6411 14.9239C21.8176 15.0482 21.9535 15.2219 22.0317 15.4231C22.11 15.6243 22.1271 15.8441 22.081 16.0551C22.0349 16.266 21.9276 16.4586 21.7725 16.6088C21.6174 16.759 21.4214 16.8601 21.2092 16.8994C20.9969 16.9388 20.7777 16.9146 20.5791 16.83C20.4446 16.7727 20.3229 16.689 20.2212 16.584C20.1194 16.479 20.0397 16.3546 19.9867 16.2184C19.9337 16.0821 19.9085 15.9366 19.9125 15.7904C19.9166 15.6442 19.9498 15.5004 20.0102 15.3672Z" fill="#939393"></path> <path d="M69.5025 63.8018C69.6105 63.788 69.7202 63.8033 69.8202 63.8462C69.9202 63.889 70.007 63.9579 70.0714 64.0456L77.6698 73.6757C77.7172 73.8348 77.7172 74.0042 77.6698 74.1633C77.6295 74.3313 77.5454 74.4855 77.426 74.6103C77.3066 74.6453 77.1797 74.6453 77.0603 74.6103H76.8165H76.4914L68.893 64.9802C68.7759 64.8527 68.7109 64.686 68.7109 64.5129C68.7109 64.3398 68.7759 64.1731 68.893 64.0456L69.5025 63.8018Z" fill="#939393"></path> <path d="M79.902 76.6436C79.7936 76.9125 79.5831 77.1275 79.3166 77.2417C79.0502 77.3559 78.7493 77.36 78.4798 77.2531C78.208 77.1363 77.9923 76.9183 77.8785 76.6452C77.7647 76.3722 77.7618 76.0655 77.8703 75.7903C77.9193 75.6536 77.996 75.5285 78.0955 75.4228C78.195 75.317 78.3152 75.233 78.4487 75.1758C78.5821 75.1186 78.7259 75.0895 78.8711 75.0904C79.0163 75.0912 79.1598 75.122 79.2925 75.1808C79.4306 75.2342 79.5565 75.315 79.6625 75.4183C79.7685 75.5217 79.8526 75.6454 79.9095 75.7821C79.9665 75.9187 79.9952 76.0655 79.9939 76.2136C79.9926 76.3616 79.9613 76.5079 79.902 76.6436Z" fill="#939393"></path> <path d="M68.2818 21.1384C68.2671 21.0342 68.2779 20.928 68.3133 20.829C68.3486 20.7299 68.4076 20.6408 68.4849 20.5695L77.4649 12.4429C77.622 12.3836 77.7954 12.3836 77.9525 12.4429C78.0408 12.446 78.1272 12.4697 78.2048 12.512C78.2824 12.5543 78.349 12.6141 78.3995 12.6867C78.4366 12.7919 78.4366 12.9066 78.3995 13.0118C78.3995 13.0118 78.3995 13.0118 78.3995 13.2556C78.4345 13.3749 78.4345 13.5019 78.3995 13.6213L69.4195 21.7479C69.292 21.865 69.1253 21.9299 68.9522 21.9299C68.7791 21.9299 68.6124 21.865 68.4849 21.7479C68.3531 21.5721 68.2818 21.3582 68.2818 21.1384Z" fill="#939393"></path> <path d="M80.2232 9.88314C80.506 9.96818 80.7447 10.1599 80.8887 10.4177C81.0328 10.6755 81.071 10.9792 80.9952 11.2647C80.937 11.4837 80.8148 11.6803 80.6441 11.8294C80.4735 11.9785 80.2622 12.0733 80.0374 12.1016C79.8126 12.1298 79.5844 12.0903 79.3822 11.988C79.18 11.8858 79.0129 11.7255 78.9024 11.5277C78.7919 11.3299 78.7429 11.1036 78.7618 10.8778C78.7807 10.652 78.8666 10.437 79.0085 10.2603C79.1504 10.0836 79.3418 9.95332 79.5582 9.88613C79.7746 9.81894 80.0061 9.81789 80.2232 9.88314Z" fill="#939393"></path></svg>